<svg width="160" height="160" viewBox="0 0 160 160" fill="none" xmlns="http://www.w3.org/2000/svg">
<mask id="mask0_640_38500" style="mask-type:alpha" maskUnits="userSpaceOnUse" x="0" y="0" width="160" height="160">
<rect width="160" height="160" fill="#D9D9D9"/>
</mask>
<g mask="url(#mask0_640_38500)">
<path fill-rule="evenodd" clip-rule="evenodd" d="M86.5576 51.1751C86.857 50.4695 87.0602 49.6569 87.3595 48.9513C87.4557 48.5557 87.9582 48.5557 88.1614 48.9513C89.0702 51.8701 90.0752 54.7996 90.984 57.7184C93.9028 59.429 94.7047 60.8296 92.994 59.8567C91.6896 59.0548 90.3745 58.3492 89.0701 57.5473C88.5676 57.2373 88.3645 58.253 89.0701 58.9586L92.0853 60.7655C94.5016 62.273 94.106 62.9787 91.5828 61.4711C90.6847 60.8617 89.7759 60.402 88.8671 59.8567C88.6639 59.7605 87.9583 61.4711 89.2734 62.273C92.994 64.4862 93.4003 64.4113 93.4003 66.6993C93.4003 94.2837 93.4003 92.68 93.2934 92.8724C93.1865 93.0649 93.6035 92.7762 88.3646 95.0963C83.4358 95.0963 83.532 94.0271 81.0195 97.6088C81.0195 107.98 78.9987 109.583 78.9987 97.5019C76.5824 94.1875 76.9886 95.0963 72.7654 95.0963C72.6585 95.0963 67.826 93.0756 67.6335 92.8724C67.4411 92.6693 67.5266 94.8932 67.5266 62.0699C66.0191 60.5624 66.0191 60.4661 66.0191 60.263C66.0191 60.0599 65.8159 60.1668 71.151 57.0555C72.6585 56.1467 72.7654 56.3499 79.3087 56.1467C82.5162 56.1467 76.8924 55.7404 74.6793 55.5373C73.0648 55.4411 72.5409 55.1417 71.0548 55.9436C70.146 56.553 69.9857 55.8474 70.146 54.5323C71.151 46.8878 71.0548 47.1871 71.3542 47.0482C71.6536 46.9092 71.5573 46.9412 74.273 48.7588C75.3421 45.84 74.7755 48.1494 76.5824 38.4842C76.5986 38.3939 76.6433 38.3113 76.7101 38.2484C76.7768 38.1856 76.862 38.1458 76.9531 38.1351C77.0441 38.1243 77.1361 38.143 77.2157 38.1886C77.2952 38.2341 77.3582 38.304 77.395 38.3879C77.5838 38.7119 77.7516 39.0476 77.8975 39.3929C78.4962 37.9817 78.9666 36.5704 79.5119 35.1163C79.7044 34.71 80.3138 34.8062 80.3138 35.2125C80.8163 37.2226 81.3188 39.1364 81.8213 41.0502C82.3238 40.3445 82.7301 39.6389 83.2326 38.837C83.2858 38.7666 83.3586 38.7135 83.4419 38.6843C83.5252 38.6551 83.6153 38.6511 83.7008 38.6728C83.7864 38.6944 83.8636 38.7409 83.923 38.8062C83.9823 38.8715 84.0211 38.9529 84.0344 39.0401C85.4457 49.4645 85.0394 47.7324 86.5576 51.1751ZM85.2426 55.4518C87.4558 55.2593 90.0752 56.3606 86.0445 56.2643C84.3338 56.1574 83.3288 56.1574 81.5219 56.1574C78.4 56.104 85.542 55.4945 85.2426 55.4945V55.4518ZM87.862 83.1431C87.862 84.5437 87.6589 86.96 84.3338 86.96C81.5219 86.96 80.9124 85.6556 80.9124 82.9399V65.2667C80.9124 62.9466 81.6181 62.7435 84.4407 62.7435C87.2633 62.7435 87.7658 62.7435 87.7658 65.0635C87.862 64.9566 87.862 64.561 87.862 83.1858V83.1431ZM92.5877 86.96C92.5877 88.8738 91.8927 89.0983 90.6846 88.275C88.1614 86.7568 88.6639 86.8638 88.6639 66.8277C88.6639 63.8126 88.5678 62.8076 91.1872 64.4113C93.101 65.6623 92.5877 69.693 92.5877 87.0027V86.96ZM68.2322 59.7819C67.2272 60.3913 67.9328 61.3963 69.141 60.6907C72.5623 58.6806 72.3485 58.5523 73.6636 58.5523C86.9533 58.4561 89.0702 57.0448 74.0699 56.9486C72.7655 57.0127 72.7654 57.109 68.2322 59.8246V59.7819ZM69.6436 61.4925C68.2323 62.3051 68.1359 64.6145 69.9428 63.5133C72.3591 62.102 72.4554 61.8988 73.8667 61.8988C92.2884 61.8026 90.7809 59.6856 74.0699 59.5787C73.1611 59.5787 73.0648 59.4825 72.3591 59.8888C71.3806 60.3064 70.4664 60.8608 69.6436 61.5353V61.4925ZM70.4454 88.3713C72.9687 86.8637 72.4555 86.96 72.4555 66.9346C72.4555 63.9088 72.5623 62.9038 69.9428 64.5183C68.029 65.5874 68.5316 69.0408 68.5316 87.0669C68.6385 87.0027 68.0291 89.8253 70.4454 88.414V88.3713ZM76.5824 62.7114C73.8667 62.7114 73.268 62.7114 73.268 65.0315V83.2072C73.268 84.6185 73.4711 87.0348 76.7855 87.0348C79.6081 87.0348 80.2069 85.7198 80.2069 83.0041V65.3629C80.1107 62.8504 79.405 62.7007 76.5824 62.7007V62.7114Z" fill="#CFA183"/>
<path fill-rule="evenodd" clip-rule="evenodd" d="M91.7853 53.0781C100.649 51.7737 112.025 44.9311 121.882 41.8091C121.936 41.7822 121.998 41.7778 122.056 41.7968C122.113 41.8159 122.16 41.8568 122.187 41.9107C122.214 41.9646 122.218 42.027 122.199 42.0841C122.18 42.1412 122.139 42.1885 122.085 42.2154C115.243 45.3374 100.446 53.3882 91.8922 54.7995C91.7725 54.8009 91.6537 54.7784 91.5428 54.7332C91.4319 54.688 91.3311 54.6211 91.2464 54.5365C91.1618 54.4518 91.0949 54.351 91.0498 54.2401C91.0046 54.1292 90.982 54.0104 90.9835 53.8907C90.9835 53.0781 92.0847 53.0781 91.7853 53.0781ZM96.4148 59.1189C95.506 59.6214 94.6079 58.317 95.4098 57.7183C97.2599 56.9751 99.1849 56.4338 101.151 56.1038C111.116 54.0938 127.827 47.743 128.126 49.2612C128.222 49.6568 129.431 48.8549 108.593 55.9007C105.385 56.9699 103.364 57.1088 100.146 57.9107C98.8691 58.2025 97.6205 58.6068 96.4148 59.1189ZM130.339 56.9805C131.045 58.2849 109.405 64.732 95.7092 64.732C95.4824 64.7178 95.2705 64.6141 95.1201 64.4437C94.9697 64.2732 94.8932 64.05 94.9073 63.8232C94.9215 63.5963 95.0252 63.3844 95.1956 63.234C95.3661 63.0837 95.5892 63.0071 95.8161 63.0213C113.329 63.1496 130.243 56.5101 130.339 57.0126V56.9805ZM111.821 66.742C128.928 65.4376 127.923 64.1225 128.426 64.2295C131.954 66.6351 100.627 69.1583 95.7092 69.3614C95.4844 69.3649 95.2667 69.283 95.1 69.1322C94.9333 68.9814 94.8299 68.7729 94.811 68.5489C94.7041 67.1804 95.4098 68.0464 111.821 66.7741V66.742ZM119.872 72.4834C120.471 72.1733 120.877 72.7828 119.872 72.9859C119.872 72.9859 118.258 73.2853 108.699 73.0821C104.423 72.9859 98.8311 72.879 97.4198 72.879C97.193 72.879 96.9754 72.7889 96.815 72.6285C96.6546 72.4681 96.5645 72.2505 96.5645 72.0237C96.5645 71.7968 96.6546 71.5792 96.815 71.4188C96.9754 71.2584 97.193 71.1683 97.4198 71.1683C108.496 71.4035 119.968 72.5155 119.872 72.5155V72.4834ZM96.618 77.1129C96.3911 77.1256 96.1685 77.0478 95.9991 76.8964C95.8296 76.745 95.7273 76.5325 95.7146 76.3057C95.7018 76.0788 95.7796 75.8562 95.9309 75.6867C96.0823 75.5173 96.2949 75.415 96.5218 75.4022C102.563 75.4022 107.695 76.7066 112.559 76.9097C118.29 77.3053 121.412 76.4072 121.412 77.2091C121.412 77.3053 121.316 77.4122 121.209 77.5085C105.075 79.155 110.71 77.1449 96.618 77.1449V77.1129ZM96.618 80.0317C119.573 88.1787 120.278 87.58 120.075 88.1787C119.776 89.59 96.7141 81.8386 96.0192 81.6354C95.9139 81.5961 95.8174 81.5364 95.7352 81.4598C95.6529 81.3832 95.5866 81.2911 95.5399 81.1889C95.4933 81.0866 95.4672 80.9762 95.4632 80.8638C95.4592 80.7515 95.4774 80.6395 95.5167 80.5342C95.556 80.4289 95.6158 80.3324 95.6924 80.2501C95.769 80.1679 95.8611 80.1015 95.9633 80.0549C96.0656 80.0082 96.176 79.9821 96.2883 79.9782C96.4006 79.9742 96.5127 79.9924 96.618 80.0317ZM96.1155 86.1687C96.0036 86.1477 95.8971 86.104 95.8028 86.0404C95.7084 85.9768 95.6282 85.8945 95.5668 85.7986C95.5055 85.7028 95.4644 85.5954 95.4461 85.4831C95.4278 85.3707 95.4327 85.2558 95.4604 85.1455C95.4882 85.0351 95.5382 84.9316 95.6075 84.8413C95.6768 84.751 95.7639 84.6759 95.8633 84.6205C95.9628 84.5651 96.0725 84.5306 96.1857 84.5192C96.2989 84.5078 96.4133 84.5198 96.5218 84.5542C96.9174 84.5542 106.69 90.2956 106.69 90.2956C115.745 95.5345 116.847 94.8289 120.172 96.9351C120.471 97.2452 120.172 97.4376 119.968 97.3414C118.365 96.7427 118.365 96.7427 116.761 96.2722C107.791 93.4497 97.2274 86.2221 96.1155 86.2221V86.1687ZM118.867 106.397C119.07 106.6 118.867 106.9 118.568 106.803C109.405 101.062 96.2117 91.2044 96.2117 91.2044C95.3136 90.4988 96.5217 89.1837 97.2808 89.8893C97.3236 89.8252 114.943 102.505 118.867 106.429V106.397Z" fill="url(#paint0_linear_640_38500)"/>
<path fill-rule="evenodd" clip-rule="evenodd" d="M68.3286 53.0797C59.476 51.7753 48.1001 44.9327 38.2317 41.8107C38.1778 41.7852 38.116 41.7821 38.0598 41.8022C38.0037 41.8222 37.9578 41.8637 37.9323 41.9176C37.9068 41.9715 37.9038 42.0333 37.9238 42.0894C37.9439 42.1456 37.9853 42.1915 38.0392 42.217C44.8818 45.3389 59.679 53.3897 68.2323 54.801C68.3517 54.8193 68.4735 54.8124 68.5901 54.7808C68.7066 54.7492 68.8153 54.6936 68.909 54.6176C69.0028 54.5415 69.0796 54.4467 69.1346 54.3392C69.1895 54.2317 69.2214 54.1139 69.2281 53.9933C69.2349 53.8728 69.2164 53.7521 69.1737 53.6392C69.1311 53.5262 69.0653 53.4234 68.9806 53.3374C68.8958 53.2513 68.7941 53.184 68.6818 53.1396C68.5695 53.0952 68.4493 53.0748 68.3286 53.0797ZM63.6991 59.1204C64.7683 59.7299 65.6129 58.3186 64.7683 57.7198C62.9173 56.979 60.9926 56.4378 59.0269 56.1054C49.0623 54.0954 32.2978 47.7445 32.0519 49.2628C31.945 49.6583 30.7369 48.8565 51.5748 55.9023C54.6968 56.9073 56.8138 57.1104 60.0319 57.9123C61.2795 58.2343 62.5044 58.6379 63.6991 59.1204ZM64.3086 63.1512C46.9882 63.1512 29.8815 56.5117 29.7746 57.0142C29.1759 58.3186 50.4201 64.7656 64.4048 64.7656C65.4098 64.7656 65.4098 63.1512 64.3086 63.1512ZM64.5117 67.7806C62.3733 67.6844 54.3439 67.2781 48.3031 66.7756C30.4802 65.3643 31.5921 63.7499 31.5921 64.5625C31.389 67.2781 62.3947 69.3951 64.5117 69.4913C64.7385 69.4913 64.9561 69.4012 65.1165 69.2408C65.2769 69.0804 65.367 68.8628 65.367 68.636C65.367 68.4091 65.2769 68.1916 65.1165 68.0312C64.9561 67.8708 64.7385 67.7806 64.5117 67.7806ZM39.6429 72.6133C39.4398 72.9126 38.638 73.4151 51.3182 73.1158C55.5949 73.1158 61.1865 72.9126 62.5978 72.9126C62.8247 72.9126 63.0423 72.8225 63.2027 72.6621C63.3632 72.5017 63.4532 72.2841 63.4532 72.0573C63.4532 71.8305 63.3632 71.6129 63.2027 71.4525C63.0423 71.2921 62.8247 71.202 62.5978 71.202C53.0288 71.4051 39.7499 72.517 39.6429 72.6133ZM63.5067 77.1465C64.5759 77.2427 64.7041 75.5321 63.6029 75.4359C63.6029 75.4359 61.3897 75.4359 58.2571 75.7352C54.5364 76.0346 51.4144 76.7402 47.6831 76.9434C42.0486 77.339 38.8304 76.4409 38.8304 77.2427C38.8304 77.339 38.9267 77.4459 39.0336 77.5421C43.6595 78.2795 48.3641 78.3838 53.0182 77.8522C61.4859 76.9434 63.6029 77.1465 63.5067 77.1465ZM39.9851 88.1161C40.2952 89.5274 63.2394 81.8722 64.052 81.5728C65.057 81.2735 64.5544 79.659 63.4425 79.9584C64.2016 80.0653 39.9423 87.8167 39.9423 88.1161H39.9851ZM63.6457 84.5879C63.2394 84.5879 53.3816 90.3293 53.3816 90.3293C44.6252 95.4613 42.9039 95.0657 39.8888 96.9688C39.6857 97.1719 39.8889 97.4713 40.092 97.375C41.1339 96.9416 42.2059 96.5842 43.2995 96.3059C51.2541 93.7934 56.5891 89.7733 63.9343 86.2451C64.9286 86.2237 64.8111 84.2885 63.6029 84.5879H63.6457ZM41.3002 106.431C41.0971 106.634 41.3964 106.933 41.5996 106.837C50.356 101.406 63.945 91.2381 63.945 91.2381C64.8538 90.5324 63.7418 89.2174 62.8758 89.923C63.3997 89.8268 46.6887 101 41.2574 106.431H41.3002Z" fill="url(#paint1_linear_640_38500)"/>
</g>
<path d="M48.7112 116.802V117.347C48.1142 117.347 47.5188 117.408 46.9345 117.528C46.761 117.552 46.5984 117.625 46.4665 117.738C46.3346 117.851 46.239 117.998 46.1913 118.163C46.0599 118.64 45.9973 119.132 46.0055 119.626V133.236C45.9998 133.67 46.0625 134.102 46.1913 134.517C46.2313 134.646 46.3031 134.763 46.4003 134.858C46.4975 134.953 46.6171 135.023 46.7487 135.062C47.211 135.152 47.6835 135.182 48.1539 135.152H49.826C50.5658 135.142 51.2961 134.988 51.9742 134.699C52.6291 134.424 53.2303 134.04 53.7509 133.565C54.3165 133.021 54.7595 132.368 55.0515 131.648C55.4406 130.867 55.7217 130.04 55.8875 129.187H56.6307C56.5456 129.974 56.5146 130.766 56.5379 131.557V133.372C56.5532 134.195 56.6151 135.017 56.7236 135.833C55.5624 135.833 54.3083 135.742 52.9033 135.742H38.1672V135.198C38.7034 135.206 39.2383 135.145 39.7581 135.016C39.9186 134.963 40.067 134.88 40.1946 134.771C40.3221 134.662 40.4263 134.53 40.5013 134.381C40.6808 133.915 40.7445 133.413 40.6871 132.918V119.535C40.6953 119.042 40.6328 118.549 40.5013 118.072C40.4398 117.915 40.34 117.776 40.2104 117.665C40.0809 117.554 39.9256 117.476 39.7581 117.437C39.2372 117.315 38.7031 117.254 38.1672 117.256V116.802C38.9154 116.794 39.6636 116.824 40.4085 116.893H46.3772C47.3062 116.893 48.1539 116.802 48.7112 116.802Z" fill="#CFA183"/>
<path d="M76.8724 118.813C76.7492 119.465 76.6882 120.127 76.6903 120.79V127.835C76.6972 128.893 76.6058 129.95 76.4172 130.992C76.2641 131.89 75.8713 132.731 75.2793 133.43C74.6357 134.216 73.7966 134.824 72.844 135.194C71.495 135.67 70.0652 135.884 68.6337 135.823C67.5924 135.818 66.5532 135.728 65.527 135.553C64.5116 135.384 63.5452 135.001 62.6935 134.43C62.0159 134.033 61.452 133.472 61.055 132.801C60.673 132.155 60.4254 131.441 60.3267 130.7C60.2123 129.741 60.1515 128.777 60.1445 127.812V119.51C60.1499 119.02 60.0849 118.532 59.9512 118.06C59.8909 117.905 59.7929 117.766 59.666 117.657C59.5391 117.547 59.387 117.47 59.2229 117.431C58.7161 117.311 58.1966 117.25 57.6753 117.251V116.802C58.4047 116.794 59.1339 116.824 59.8601 116.892H65.7091C66.4689 116.914 67.2294 116.884 67.985 116.802V117.341C67.4037 117.342 66.824 117.402 66.2553 117.521C66.0832 117.543 65.9215 117.614 65.7901 117.726C65.6586 117.838 65.5632 117.985 65.5157 118.15C65.3869 118.623 65.3256 119.11 65.3336 119.6V129.61C65.3415 130.396 65.4023 131.18 65.5157 131.958C65.6297 132.578 65.8823 133.165 66.2553 133.677C66.6041 134.13 67.0785 134.473 67.6209 134.666C68.3186 134.939 69.0674 135.061 69.8171 135.025C71.0723 135.123 72.325 134.807 73.3788 134.126C74.2468 133.54 74.8883 132.68 75.1995 131.688C75.5886 130.556 75.7774 129.367 75.7572 128.172V121.15C75.7858 120.391 75.6935 119.633 75.484 118.903C75.1129 118.177 74.6829 117.482 74.1981 116.825H77.612C77.8737 116.914 76.9634 118.341 76.8724 118.813Z" fill="#CFA183"/>
<path d="M98.5945 116.801C98.4865 117.597 98.4244 118.398 98.4087 119.201C98.4087 119.936 98.316 120.58 98.316 120.947V122.096C98.296 122.405 98.3273 122.715 98.4087 123.015H97.666C97.501 121.844 97.1068 120.716 96.5055 119.695C96.0588 118.954 95.417 118.346 94.6488 117.938C93.8017 117.553 92.8769 117.364 91.9449 117.387H90.7844C90.2835 117.361 89.7812 117.392 89.2873 117.478C89.1379 117.501 88.9978 117.565 88.883 117.663C88.7682 117.76 88.6831 117.887 88.6374 118.03C88.5016 118.449 88.4389 118.888 88.4518 119.328V132.881C88.4188 133.42 88.5142 133.959 88.7303 134.455C88.8372 134.634 88.9854 134.786 89.1629 134.897C89.3404 135.009 89.5421 135.078 89.7515 135.098C90.4916 135.221 91.2407 135.282 91.9912 135.282V135.833C91.3413 135.833 90.4014 135.833 89.2873 135.741H83.0322C82.1917 135.722 81.3508 135.753 80.5139 135.833V135.282C81.0497 135.29 81.5843 135.228 82.1038 135.098C82.2642 135.044 82.4125 134.96 82.54 134.849C82.6674 134.739 82.7715 134.605 82.8465 134.455C83.025 133.982 83.0886 133.474 83.0322 132.973V119.5C83.0412 119 82.9787 118.501 82.8465 118.018C82.785 117.859 82.6853 117.718 82.5558 117.606C82.4264 117.493 82.2711 117.414 82.1038 117.375C81.583 117.252 81.0493 117.19 80.5139 117.191V116.824H94.9621C96.1717 116.909 97.3861 116.901 98.5945 116.801ZM93.6624 126.208V126.759H87.5117V126.208H93.6624ZM94.4979 122.613C94.4051 123.623 94.4051 124.462 94.4051 125.013V127.965C94.4051 128.516 94.4978 129.252 94.5907 130.354H93.8479C93.725 129.74 93.5016 129.151 93.1865 128.608C92.901 128.052 92.4464 127.598 91.8868 127.31C91.2314 126.954 90.4854 126.795 89.7399 126.851V126.3C90.3241 126.33 90.9057 126.203 91.4226 125.932C91.8879 125.738 92.2896 125.42 92.5831 125.013C92.884 124.646 93.1339 124.24 93.3258 123.807C93.4753 123.432 93.6031 123.048 93.7087 122.659L94.4979 122.613Z" fill="#CFA183"/>
<path d="M121.433 116.801V117.348C120.875 117.547 120.365 117.857 119.935 118.26C119.248 118.891 118.678 119.636 118.251 120.459L111.911 130.534H110.332L102.494 118.909C102.241 118.404 101.835 117.986 101.333 117.713C101.083 117.553 100.795 117.459 100.497 117.439V116.801C101.113 116.879 101.734 116.909 102.355 116.892H107.58C108.741 116.892 109.728 116.801 110.657 116.801V117.348C110.16 117.33 109.662 117.36 109.171 117.439C108.828 117.467 108.501 117.594 108.23 117.804C108.045 117.986 108.138 118.26 108.323 118.727L113.641 126.864L112.62 128.004L116.103 122.419C116.792 121.538 117.239 120.498 117.404 119.399C117.465 119.105 117.436 118.8 117.32 118.522C117.204 118.244 117.007 118.006 116.753 117.838C116.09 117.506 115.349 117.349 114.605 117.382V116.835C115.322 116.818 116.04 116.848 116.753 116.926H120.237C120.631 116.849 121.031 116.807 121.433 116.801ZM114.245 126.226V132.995C114.242 133.491 114.304 133.985 114.431 134.465C114.479 134.631 114.574 134.779 114.706 134.893C114.838 135.006 115.001 135.079 115.174 135.104C115.695 135.225 116.229 135.286 116.765 135.286V135.833C116.207 135.833 115.371 135.742 114.443 135.742H108.637C107.892 135.718 107.147 135.749 106.408 135.833V135.286C106.94 135.293 107.471 135.232 107.987 135.104C108.147 135.05 108.295 134.967 108.423 134.857C108.55 134.748 108.655 134.614 108.73 134.465C108.909 133.997 108.973 133.493 108.916 132.995V127.513L111.807 129.155L114.245 126.226Z" fill="#CFA183"/>
<path d="M34.6582 148.708V143.268H35.1822V148.262H37.9169V148.708H34.6582Z" fill="#A68169"/>
<path d="M40.8829 143.268V148.708H40.359V143.268H40.8829Z" fill="#A68169"/>
<path d="M47.6414 144.968C47.5891 144.787 47.5125 144.618 47.4117 144.46C47.3108 144.301 47.1856 144.162 47.0362 144.043C46.8886 143.923 46.7177 143.829 46.5234 143.762C46.331 143.695 46.1162 143.661 45.879 143.661C45.5054 143.661 45.171 143.753 44.8759 143.937C44.5807 144.121 44.3472 144.387 44.1754 144.734C44.0054 145.081 43.9204 145.499 43.9204 145.988C43.9204 146.475 44.0063 146.892 44.1782 147.239C44.3501 147.586 44.5854 147.853 44.8843 148.039C45.185 148.223 45.5287 148.315 45.9154 148.315C46.2685 148.315 46.5804 148.241 46.8513 148.092C47.1221 147.943 47.3332 147.731 47.4845 147.454C47.6377 147.178 47.7124 146.849 47.7087 146.469L47.8768 146.519H46.0387V146.073H48.2186V146.519C48.2186 146.983 48.1196 147.384 47.9216 147.723C47.7236 148.061 47.4518 148.322 47.1062 148.506C46.7607 148.69 46.3637 148.782 45.9154 148.782C45.4148 148.782 44.9768 148.668 44.6013 148.44C44.2258 148.21 43.9335 147.885 43.7243 147.468C43.5169 147.048 43.4133 146.555 43.4133 145.988C43.4133 145.561 43.473 145.176 43.5926 144.832C43.7121 144.489 43.8812 144.195 44.0997 143.95C44.3202 143.706 44.5807 143.519 44.8815 143.39C45.1822 143.259 45.5147 143.193 45.879 143.193C46.1928 143.193 46.4795 143.24 46.7392 143.334C47.0007 143.428 47.2305 143.557 47.4285 143.722C47.6283 143.885 47.7918 144.074 47.9188 144.288C48.0477 144.5 48.1346 144.727 48.1794 144.968H47.6414Z" fill="#A68169"/>
<path d="M50.7819 148.708V143.268H51.3059V145.762H54.5617V143.268H55.0857V148.708H54.5617V146.208H51.3059V148.708H50.7819Z" fill="#A68169"/>
<path d="M57.5222 143.714V143.268H61.6831V143.714H59.8646V148.708H59.3406V143.714H57.5222Z" fill="#A68169"/>
<path d="M71.4314 143.268H71.9554V146.87C71.9554 147.24 71.8639 147.571 71.6808 147.863C71.4978 148.154 71.2428 148.383 70.9159 148.551C70.5909 148.718 70.2126 148.801 69.7811 148.801C69.3515 148.801 68.9732 148.717 68.6463 148.549C68.3194 148.38 68.0644 148.151 67.8814 147.861C67.6983 147.57 67.6068 147.24 67.6068 146.87V143.268H68.1307V146.835C68.1307 147.124 68.1989 147.382 68.3353 147.608C68.4716 147.833 68.6631 148.01 68.9097 148.14C69.1581 148.269 69.4486 148.334 69.7811 148.334C70.1136 148.334 70.4041 148.269 70.6525 148.14C70.9009 148.01 71.0924 147.833 71.2269 147.608C71.3633 147.382 71.4314 147.124 71.4314 146.835V143.268Z" fill="#A68169"/>
<path d="M74.7407 148.708V143.268H76.5928C77 143.268 77.34 143.342 77.6127 143.491C77.8873 143.638 78.0937 143.838 78.232 144.091C78.3721 144.344 78.4421 144.63 78.4421 144.947C78.4421 145.264 78.373 145.55 78.2348 145.805C78.0965 146.058 77.8911 146.259 77.6183 146.408C77.3456 146.555 77.0066 146.628 76.6012 146.628H75.1442V146.182H76.5872C76.888 146.182 77.1373 146.129 77.3353 146.022C77.5333 145.914 77.6809 145.767 77.778 145.581C77.8771 145.396 77.9265 145.184 77.9265 144.947C77.9265 144.709 77.8771 144.498 77.778 144.312C77.6809 144.126 77.5324 143.98 77.3325 143.873C77.1345 143.767 76.8833 143.714 76.5788 143.714H75.2647V148.708H74.7407Z" fill="#A68169"/>
<path d="M84.4162 148.708V143.268H87.7365V143.714H84.9402V145.762H87.476V146.208H84.9402V148.708H84.4162Z" fill="#A68169"/>
<path d="M95.0064 145.988C95.0064 146.555 94.8999 147.048 94.687 147.468C94.474 147.885 94.1808 148.21 93.8072 148.44C93.4354 148.668 93.0077 148.782 92.5239 148.782C92.0401 148.782 91.6114 148.668 91.2378 148.44C90.866 148.21 90.5737 147.885 90.3607 147.468C90.1497 147.048 90.0441 146.555 90.0441 145.988C90.0441 145.421 90.1497 144.929 90.3607 144.511C90.5737 144.091 90.867 143.767 91.2406 143.539C91.6142 143.308 92.0419 143.193 92.5239 143.193C93.0077 143.193 93.4354 143.308 93.8072 143.539C94.1808 143.767 94.474 144.091 94.687 144.511C94.8999 144.929 95.0064 145.421 95.0064 145.988ZM94.4964 145.988C94.4964 145.501 94.4105 145.084 94.2387 144.737C94.0668 144.388 93.8324 144.121 93.5354 143.937C93.2384 143.753 92.9012 143.661 92.5239 143.661C92.1484 143.661 91.8122 143.753 91.5152 143.937C91.2182 144.121 90.9828 144.387 90.8091 144.734C90.6372 145.081 90.5513 145.499 90.5513 145.988C90.5513 146.475 90.6372 146.892 90.8091 147.239C90.9809 147.586 91.2153 147.853 91.5124 148.039C91.8094 148.223 92.1465 148.315 92.5239 148.315C92.9012 148.315 93.2384 148.223 93.5354 148.039C93.8342 147.854 94.0696 147.589 94.2415 147.242C94.4133 146.893 94.4983 146.475 94.4964 145.988Z" fill="#A68169"/>
<path d="M97.536 148.708V143.268H99.3881C99.7954 143.268 100.135 143.338 100.408 143.478C100.683 143.616 100.889 143.808 101.027 144.054C101.167 144.298 101.237 144.579 101.237 144.896C101.237 145.213 101.167 145.493 101.027 145.736C100.889 145.978 100.684 146.168 100.411 146.304C100.138 146.44 99.8 146.509 99.3965 146.509H97.819V146.054H99.3825C99.6814 146.054 99.9298 146.007 100.128 145.914C100.328 145.82 100.476 145.686 100.573 145.512C100.672 145.339 100.722 145.133 100.722 144.896C100.722 144.659 100.672 144.452 100.573 144.275C100.474 144.096 100.325 143.958 100.125 143.86C99.927 143.763 99.6767 143.714 99.3741 143.714H98.06V148.708H97.536ZM100.066 146.254L101.478 148.708H100.873L99.475 146.254H100.066Z" fill="#A68169"/>
<path d="M106.72 143.268H107.325L109.026 145.85H109.076L110.777 143.268H111.382L109.312 146.352V148.708H108.79V146.352L106.72 143.268Z" fill="#A68169"/>
<path d="M118.064 145.988C118.064 146.555 117.957 147.048 117.744 147.468C117.531 147.885 117.238 148.21 116.864 148.44C116.493 148.668 116.065 148.782 115.581 148.782C115.097 148.782 114.669 148.668 114.295 148.44C113.923 148.21 113.631 147.885 113.418 147.468C113.207 147.048 113.101 146.555 113.101 145.988C113.101 145.421 113.207 144.929 113.418 144.511C113.631 144.091 113.924 143.767 114.298 143.539C114.671 143.308 115.099 143.193 115.581 143.193C116.065 143.193 116.493 143.308 116.864 143.539C117.238 143.767 117.531 144.091 117.744 144.511C117.957 144.929 118.064 145.421 118.064 145.988ZM117.554 145.988C117.554 145.501 117.468 145.084 117.296 144.737C117.124 144.388 116.89 144.121 116.593 143.937C116.296 143.753 115.958 143.661 115.581 143.661C115.206 143.661 114.869 143.753 114.572 143.937C114.275 144.121 114.04 144.387 113.866 144.734C113.695 145.081 113.609 145.499 113.609 145.988C113.609 146.475 113.695 146.892 113.866 147.239C114.038 147.586 114.273 147.853 114.57 148.039C114.867 148.223 115.204 148.315 115.581 148.315C115.958 148.315 116.296 148.223 116.593 148.039C116.892 147.854 117.127 147.589 117.299 147.242C117.471 146.893 117.556 146.475 117.554 145.988Z" fill="#A68169"/>
<path d="M124.418 143.268H124.942V146.87C124.942 147.24 124.85 147.571 124.667 147.863C124.484 148.154 124.229 148.383 123.902 148.551C123.577 148.718 123.199 148.801 122.768 148.801C122.338 148.801 121.96 148.717 121.633 148.549C121.306 148.38 121.051 148.151 120.868 147.861C120.685 147.57 120.593 147.24 120.593 146.87V143.268H121.117V146.835C121.117 147.124 121.185 147.382 121.322 147.608C121.458 147.833 121.65 148.01 121.896 148.14C122.145 148.269 122.435 148.334 122.768 148.334C123.1 148.334 123.391 148.269 123.639 148.14C123.888 148.01 124.079 147.833 124.213 147.608C124.35 147.382 124.418 147.124 124.418 146.835V143.268Z" fill="#A68169"/>
<defs>
<linearGradient id="paint0_linear_640_38500" x1="93.0246" y1="74.1395" x2="126.566" y2="74.1395" gradientUnits="userSpaceOnUse">
<stop stop-color="#CFA183"/>
<stop offset="0.864583" stop-color="#E7D0C1" stop-opacity="0"/>
</linearGradient>
<linearGradient id="paint1_linear_640_38500" x1="31.8083" y1="74.1582" x2="65.4299" y2="74.1582" gradientUnits="userSpaceOnUse">
<stop offset="0.125" stop-color="#E7D0C1" stop-opacity="0"/>
<stop offset="1" stop-color="#CFA183"/>
</linearGradient>
</defs>
</svg>
