<svg width="204" height="72" viewBox="0 0 204 72" fill="none" xmlns="http://www.w3.org/2000/svg">
<mask id="mask0_640_37619" style="mask-type:alpha" maskUnits="userSpaceOnUse" x="0" y="0" width="72" height="72">
<rect width="72" height="72" fill="#D9D9D9"/>
</mask>
<g mask="url(#mask0_640_37619)">
<path fill-rule="evenodd" clip-rule="evenodd" d="M40.5114 22.2267C40.7212 21.7327 40.8635 21.1639 41.0732 20.6699C41.1406 20.393 41.4927 20.393 41.635 20.6699C42.2718 22.7131 42.9759 24.7638 43.6126 26.807C45.6576 28.0045 46.2194 28.9849 45.0209 28.3039C44.107 27.7426 43.1856 27.2486 42.2717 26.6873C41.9197 26.4702 41.7773 27.1812 42.2717 27.6752L44.3842 28.94C46.0771 29.9953 45.8 30.4893 44.0322 29.434C43.4029 29.0074 42.7662 28.6856 42.1295 28.3039C41.9871 28.2365 41.4927 29.434 42.4141 29.9953C45.0209 31.5446 45.3056 31.4922 45.3056 33.0938C45.3056 52.4032 45.3056 51.2805 45.2307 51.4153C45.1558 51.55 45.4479 51.3479 41.7774 52.972C38.3241 52.972 38.3916 52.2235 36.6312 54.7308C36.6312 61.9905 35.2154 63.1131 35.2154 54.6559C33.5225 52.3358 33.8071 52.972 30.8482 52.972C30.7733 52.972 27.3875 51.5575 27.2527 51.4153C27.1179 51.2731 27.1778 52.8298 27.1778 29.8531C26.1216 28.7978 26.1216 28.7305 26.1216 28.5883C26.1216 28.4461 25.9792 28.5209 29.7171 26.343C30.7733 25.7068 30.8482 25.849 35.4326 25.7068C37.6799 25.7068 33.7397 25.4224 32.1891 25.2802C31.058 25.2129 30.6909 25.0033 29.6497 25.5646C29.013 25.9912 28.9006 25.4973 29.013 24.5767C29.7171 19.2255 29.6497 19.435 29.8595 19.3377C30.0692 19.2405 30.0018 19.2629 31.9045 20.5352C32.6535 18.492 32.2566 20.1086 33.5225 13.3429C33.5339 13.2797 33.5652 13.2219 33.6119 13.1779C33.6587 13.1339 33.7184 13.106 33.7822 13.0985C33.846 13.0909 33.9104 13.1041 33.9662 13.1359C34.0219 13.1678 34.066 13.2167 34.0918 13.2755C34.2241 13.5023 34.3417 13.7372 34.4439 13.979C34.8633 12.9911 35.193 12.0032 35.575 10.9853C35.7098 10.7009 36.1368 10.7683 36.1368 11.0527C36.4889 12.4597 36.841 13.7994 37.193 15.1391C37.5451 14.6451 37.8297 14.1512 38.1818 13.5898C38.2191 13.5406 38.2701 13.5034 38.3284 13.483C38.3868 13.4625 38.4499 13.4597 38.5099 13.4749C38.5698 13.4901 38.6239 13.5225 38.6655 13.5683C38.7071 13.614 38.7342 13.671 38.7436 13.732C39.7324 21.0292 39.4477 19.8167 40.5114 22.2267ZM39.5901 25.2204C41.1407 25.0857 42.9759 25.8565 40.1519 25.7892C38.9533 25.7143 38.2492 25.7143 36.9833 25.7143C34.7959 25.6769 39.7998 25.2503 39.5901 25.2503V25.2204ZM41.4253 44.6046C41.4253 45.585 41.283 47.2765 38.9534 47.2765C36.9833 47.2765 36.5562 46.3634 36.5562 44.4624V32.0909C36.5562 30.4668 37.0507 30.3246 39.0282 30.3246C41.0058 30.3246 41.3579 30.3246 41.3579 31.9487C41.4253 31.8739 41.4253 31.597 41.4253 44.6345V44.6046ZM44.7363 47.2765C44.7363 48.6161 44.2493 48.7733 43.4029 48.197C41.635 47.1343 41.9871 47.2091 41.9871 33.1836C41.9871 31.0731 41.9197 30.3695 43.755 31.4922C45.0959 32.3678 44.7363 35.1894 44.7363 47.3064V47.2765ZM27.6721 28.2515C26.968 28.6781 27.4624 29.3816 28.3088 28.8877C30.7059 27.4806 30.5562 27.3908 31.4775 27.3908C40.7886 27.3234 42.2718 26.3355 31.7622 26.2682C30.8483 26.3131 30.8482 26.3804 27.6721 28.2814V28.2515ZM28.661 29.449C27.6722 30.0178 27.6047 31.6344 28.8706 30.8635C30.5636 29.8756 30.631 29.7334 31.6198 29.7334C44.5265 29.666 43.4703 28.1841 31.7622 28.1093C31.1255 28.1093 31.058 28.0419 30.5636 28.3263C29.878 28.6187 29.2374 29.0067 28.661 29.4789V29.449ZM29.2228 48.2644C30.9906 47.2091 30.6311 47.2765 30.6311 33.2585C30.6311 31.1404 30.7059 30.4369 28.8706 31.567C27.5298 32.3154 27.8819 34.7328 27.8819 47.3513C27.9568 47.3064 27.5298 49.2822 29.2228 48.2943V48.2644ZM33.5225 30.3022C31.6198 30.3022 31.2004 30.3022 31.2004 31.9263V44.6495C31.2004 45.6374 31.3426 47.3288 33.6648 47.3288C35.6424 47.3288 36.0619 46.4083 36.0619 44.5073V32.1583C35.9945 30.3995 35.5001 30.2947 33.5225 30.2947V30.3022Z" fill="#CFA183"/>
<path fill-rule="evenodd" clip-rule="evenodd" d="M44.1759 23.5595C50.3858 22.6464 58.356 17.8565 65.2626 15.6711C65.3003 15.6522 65.344 15.6491 65.384 15.6625C65.424 15.6758 65.4572 15.7045 65.4761 15.7422C65.495 15.7799 65.498 15.8236 65.4847 15.8636C65.4713 15.9036 65.4426 15.9366 65.4049 15.9555C60.6107 18.1409 50.2434 23.7765 44.2508 24.7645C44.1669 24.7655 44.0837 24.7497 44.006 24.7181C43.9283 24.6865 43.8576 24.6396 43.7983 24.5804C43.739 24.5211 43.6922 24.4506 43.6605 24.3729C43.6289 24.2953 43.6131 24.2121 43.6141 24.1283C43.6141 23.5595 44.3856 23.5595 44.1759 23.5595ZM47.4194 27.7881C46.7826 28.1399 46.1535 27.2268 46.7153 26.8077C48.0115 26.2874 49.3602 25.9085 50.7378 25.6775C57.7193 24.2705 69.4275 19.8248 69.6372 20.8876C69.7046 21.1645 70.5511 20.6032 55.9514 25.5353C53.7042 26.2838 52.2884 26.381 50.0337 26.9424C49.139 27.1466 48.2641 27.4297 47.4194 27.7881V27.7881ZM71.1878 26.2912C71.6822 27.2043 56.5208 31.7173 46.925 31.7173C46.7661 31.7074 46.6176 31.6348 46.5123 31.5155C46.4069 31.3962 46.3533 31.24 46.3632 31.0812C46.3732 30.9224 46.4458 30.774 46.5652 30.6688C46.6846 30.5635 46.841 30.5099 46.9999 30.5198C59.2699 30.6097 71.1204 25.9619 71.1878 26.3137V26.2912ZM58.2137 33.1244C70.199 32.2113 69.4949 31.2907 69.847 31.3656C72.3189 33.0495 50.3708 34.8158 46.925 34.958C46.7676 34.9605 46.615 34.9031 46.4982 34.7975C46.3814 34.6919 46.309 34.546 46.2957 34.3892C46.2208 33.4312 46.7153 34.0374 58.2137 33.1468V33.1244ZM63.8543 37.1434C64.2738 36.9264 64.5584 37.353 63.8543 37.4952C63.8543 37.4952 62.7231 37.7047 56.0263 37.5625C53.03 37.4952 49.1123 37.4203 48.1236 37.4203C47.9646 37.4203 47.8122 37.3572 47.6998 37.245C47.5874 37.1327 47.5242 36.9804 47.5242 36.8216C47.5242 36.6628 47.5874 36.5105 47.6998 36.3982C47.8122 36.2859 47.9646 36.2228 48.1236 36.2228C55.8841 36.3875 63.9217 37.1659 63.8543 37.1659V37.1434ZM47.5617 40.3841C47.4028 40.393 47.2468 40.3385 47.1281 40.2325C47.0094 40.1266 46.9377 39.9778 46.9288 39.819C46.9198 39.6602 46.9743 39.5044 47.0804 39.3858C47.1865 39.2672 47.3354 39.1955 47.4943 39.1866C51.7267 39.1866 55.3223 40.0997 58.7306 40.2419C62.7457 40.5188 64.9329 39.8901 64.9329 40.4515C64.9329 40.5188 64.8656 40.5937 64.7906 40.661C53.487 41.8136 57.4347 40.4065 47.5617 40.4065V40.3841ZM47.5617 42.4273C63.6446 48.1303 64.1389 47.7112 63.9966 48.1303C63.7868 49.1182 47.6291 43.6921 47.1422 43.5499C47.0684 43.5224 47.0009 43.4806 46.9432 43.427C46.8856 43.3734 46.8391 43.3089 46.8064 43.2373C46.7737 43.1658 46.7555 43.0884 46.7527 43.0098C46.7499 42.9312 46.7626 42.8528 46.7902 42.779C46.8177 42.7053 46.8596 42.6378 46.9132 42.5802C46.9669 42.5226 47.0314 42.4762 47.1031 42.4435C47.1747 42.4108 47.2521 42.3926 47.3308 42.3898C47.4095 42.387 47.488 42.3998 47.5617 42.4273V42.4273ZM47.2097 46.7233C47.1313 46.7086 47.0567 46.678 46.9906 46.6335C46.9245 46.5889 46.8683 46.5313 46.8253 46.4642C46.7823 46.3971 46.7535 46.322 46.7407 46.2433C46.7279 46.1647 46.7313 46.0843 46.7508 46.007C46.7702 45.9297 46.8053 45.8573 46.8538 45.7941C46.9023 45.7309 46.9634 45.6783 47.033 45.6395C47.1027 45.6007 47.1796 45.5766 47.2589 45.5686C47.3382 45.5607 47.4184 45.569 47.4943 45.5931C47.7715 45.5931 54.6181 49.6122 54.6181 49.6122C60.9629 53.2795 61.7344 52.7855 64.0641 54.2599C64.2738 54.4769 64.064 54.6117 63.9217 54.5443C62.7981 54.1252 62.7981 54.1252 61.6744 53.7959C55.3896 51.82 47.9887 46.7607 47.2097 46.7607V46.7233ZM63.1501 60.8835C63.2924 61.0257 63.1502 61.2352 62.9404 61.1679C56.5208 57.1488 47.2771 50.2483 47.2771 50.2483C46.6479 49.7544 47.4943 48.8338 48.0262 49.3278C48.0561 49.2829 60.401 58.1592 63.1501 60.9059V60.8835Z" fill="url(#paint0_linear_640_37619)"/>
<path fill-rule="evenodd" clip-rule="evenodd" d="M27.7409 23.5598C21.5385 22.6467 13.5682 17.8568 6.65416 15.6714C6.61642 15.6535 6.57307 15.6514 6.53373 15.6654C6.4944 15.6795 6.46228 15.7085 6.4444 15.7462C6.42652 15.784 6.42441 15.8272 6.43845 15.8665C6.4525 15.9058 6.48154 15.9379 6.51929 15.9558C11.3134 18.1412 21.6807 23.7768 27.6734 24.7648C27.757 24.7776 27.8424 24.7728 27.924 24.7506C28.0057 24.7285 28.0818 24.6896 28.1475 24.6364C28.2132 24.5831 28.267 24.5167 28.3055 24.4415C28.344 24.3662 28.3663 24.2838 28.3711 24.1994C28.3758 24.115 28.3628 24.0305 28.3329 23.9515C28.3031 23.8724 28.257 23.8004 28.1976 23.7402C28.1383 23.68 28.067 23.6328 27.9883 23.6017C27.9096 23.5707 27.8254 23.5564 27.7409 23.5598V23.5598ZM24.4973 27.7884C25.2464 28.215 25.8381 27.2271 25.2464 26.808C23.9496 26.2894 22.6011 25.9105 21.2238 25.6778C14.2423 24.2708 2.49673 19.8252 2.32444 20.8879C2.24953 21.1648 1.40308 20.6035 16.0027 25.5356C18.19 26.2392 19.6732 26.3814 21.928 26.9427C22.802 27.1681 23.6603 27.4506 24.4973 27.7884V27.7884ZM24.9243 30.61C12.7892 30.61 0.8038 25.9622 0.728892 26.314C0.309406 27.2271 15.1937 31.7401 24.9917 31.7401C25.6958 31.7401 25.6959 30.61 24.9243 30.61ZM25.0666 33.8506C23.5684 33.7833 17.9428 33.4989 13.7105 33.1471C1.22325 32.1592 2.0023 31.0291 2.0023 31.5979C1.85997 33.4989 23.5834 34.9808 25.0666 35.0481C25.2255 35.0481 25.3779 34.9851 25.4903 34.8728C25.6027 34.7605 25.6659 34.6082 25.6659 34.4494C25.6659 34.2906 25.6027 34.1383 25.4903 34.026C25.3779 33.9137 25.2255 33.8506 25.0666 33.8506V33.8506ZM7.64291 37.2335C7.50059 37.4431 6.93881 37.7949 15.8229 37.5853C18.8193 37.5853 22.7369 37.4431 23.7257 37.4431C23.8846 37.4431 24.0371 37.38 24.1495 37.2677C24.2619 37.1554 24.325 37.0031 24.325 36.8444C24.325 36.6856 24.2619 36.5333 24.1495 36.421C24.0371 36.3087 23.8846 36.2456 23.7257 36.2456C17.0214 36.3878 7.71782 37.1662 7.64291 37.2335V37.2335ZM24.3625 40.4069C25.1116 40.4742 25.2014 39.2767 24.4299 39.2094C24.4299 39.2094 22.8793 39.2094 20.6845 39.4189C18.0777 39.6285 15.8903 40.1225 13.276 40.2647C9.32836 40.5416 7.0736 39.9129 7.0736 40.4742C7.0736 40.5416 7.14107 40.6164 7.21597 40.6838C10.457 41.2 13.7532 41.273 17.0139 40.9008C22.9467 40.2647 24.4299 40.4069 24.3625 40.4069V40.4069ZM7.88267 48.0857C8.0999 49.0736 24.1752 43.7149 24.7445 43.5053C25.4487 43.2958 25.0965 42.1657 24.3175 42.3752C24.8493 42.4501 7.85268 47.8761 7.85268 48.0857H7.88267ZM24.4599 45.6159C24.1752 45.6159 17.2686 49.6349 17.2686 49.6349C11.1336 53.2274 9.9276 52.9505 7.81519 54.2827C7.67286 54.4249 7.81523 54.6344 7.95756 54.5671C8.68754 54.2636 9.43859 54.0135 10.2048 53.8186C15.778 52.0598 19.5159 49.2458 24.662 46.776C25.3587 46.761 25.2763 45.4063 24.4299 45.6159H24.4599ZM8.80403 60.9062C8.6617 61.0484 8.87147 61.258 9.01379 61.1906C15.1488 57.3886 24.6695 50.2711 24.6695 50.2711C25.3063 49.7771 24.5272 48.8566 23.9205 49.3505C24.2875 49.2832 12.5794 57.1042 8.77403 60.9062H8.80403Z" fill="url(#paint1_linear_640_37619)"/>
</g>
<path d="M75.7253 58.0604V50.3149H76.4698V57.425H80.3552V58.0604H75.7253Z" fill="#A68169"/>
<path d="M84.5693 50.3149V58.0604H83.8248V50.3149H84.5693Z" fill="#A68169"/>
<path d="M94.1716 52.7354C94.0972 52.4782 93.9884 52.2374 93.8451 52.013C93.7018 51.7861 93.524 51.5882 93.3117 51.4192C93.102 51.2478 92.8592 51.1141 92.5832 51.0183C92.3098 50.9225 92.0046 50.8746 91.6675 50.8746C91.1367 50.8746 90.6617 51.0057 90.2424 51.2679C89.823 51.5302 89.4913 51.9084 89.2471 52.4025C89.0056 52.8967 88.8849 53.4918 88.8849 54.1876C88.8849 54.881 89.0069 55.4748 89.2511 55.969C89.4953 56.4631 89.8297 56.8426 90.2543 57.1073C90.6816 57.3696 91.1699 57.5007 91.7193 57.5007C92.2209 57.5007 92.6641 57.3948 93.0489 57.183C93.4338 56.9712 93.7337 56.6686 93.9486 56.2753C94.1663 55.882 94.2724 55.4143 94.2671 54.8722L94.506 54.944H91.8945V54.3087H94.9916V54.944C94.9916 55.6046 94.851 56.1757 94.5697 56.6573C94.2883 57.1389 93.9022 57.5108 93.4112 57.773C92.9202 58.0352 92.3562 58.1663 91.7193 58.1663C91.008 58.1663 90.3857 58.0037 89.8522 57.6784C89.3188 57.3506 88.9034 56.8892 88.6062 56.2942C88.3116 55.6967 88.1643 54.9945 88.1643 54.1876C88.1643 53.58 88.2492 53.0316 88.4191 52.5425C88.5889 52.0533 88.8291 51.6348 89.1396 51.2869C89.4528 50.9389 89.823 50.6729 90.2503 50.4889C90.6776 50.3023 91.15 50.209 91.6675 50.209C92.1134 50.209 92.5208 50.2758 92.8897 50.4094C93.2613 50.5431 93.5877 50.7271 93.869 50.9616C94.153 51.1936 94.3852 51.4621 94.5657 51.7672C94.7488 52.0697 94.8722 52.3925 94.9359 52.7354H94.1716Z" fill="#A68169"/>
<path d="M98.6335 58.0604V50.3149H99.3779V53.8662H104.004V50.3149H104.748V58.0604H104.004V54.5015H99.3779V58.0604H98.6335Z" fill="#A68169"/>
<path d="M108.21 50.9503V50.3149H114.122V50.9503H111.538V58.0604H110.794V50.9503H108.21Z" fill="#A68169"/>
<path d="M127.972 50.3149H128.716V55.4433C128.716 55.9702 128.586 56.4417 128.326 56.8577C128.066 57.2712 127.704 57.5977 127.239 57.8373C126.778 58.0743 126.24 58.1928 125.627 58.1928C125.017 58.1928 124.479 58.073 124.015 57.8335C123.55 57.594 123.188 57.2674 122.928 56.8539C122.668 56.4404 122.538 55.9702 122.538 55.4433V50.3149H123.282V55.3941C123.282 55.8051 123.379 56.1719 123.573 56.4947C123.767 56.8149 124.039 57.067 124.389 57.2511C124.742 57.4351 125.155 57.5271 125.627 57.5271C126.099 57.5271 126.512 57.4351 126.865 57.2511C127.218 57.067 127.49 56.8149 127.681 56.4947C127.875 56.1719 127.972 55.8051 127.972 55.3941V50.3149Z" fill="#A68169"/>
<path d="M132.674 58.0604V50.3149H135.305C135.884 50.3149 136.367 50.4208 136.754 50.6326C137.144 50.8418 137.437 51.1267 137.634 51.4873C137.833 51.8478 137.932 52.2538 137.932 52.7051C137.932 53.1564 137.834 53.5636 137.638 53.9267C137.441 54.2872 137.149 54.5734 136.762 54.7852C136.375 54.9945 135.893 55.0991 135.317 55.0991H133.247V54.4637H135.297C135.724 54.4637 136.079 54.3881 136.36 54.2368C136.641 54.083 136.851 53.8737 136.989 53.609C137.13 53.3443 137.2 53.043 137.2 52.7051C137.2 52.3672 137.13 52.0659 136.989 51.8012C136.851 51.5365 136.64 51.3285 136.356 51.1772C136.075 51.0259 135.718 50.9503 135.285 50.9503H133.418V58.0604H132.674Z" fill="#A68169"/>
<path d="M146.42 58.0604V50.3149H151.138V50.9503H147.165V53.8662H150.767V54.5015H147.165V58.0604H146.42Z" fill="#A68169"/>
<path d="M161.467 54.1876C161.467 54.9945 161.315 55.6967 161.013 56.2942C160.71 56.8892 160.293 57.3506 159.763 57.6784C159.235 58.0037 158.627 58.1663 157.939 58.1663C157.252 58.1663 156.643 58.0037 156.112 57.6784C155.584 57.3506 155.169 56.8892 154.866 56.2942C154.566 55.6967 154.416 54.9945 154.416 54.1876C154.416 53.3808 154.566 52.6799 154.866 52.0849C155.169 51.4873 155.585 51.0259 156.116 50.7006C156.647 50.3729 157.255 50.209 157.939 50.209C158.627 50.209 159.235 50.3729 159.763 50.7006C160.293 51.0259 160.71 51.4873 161.013 52.0849C161.315 52.6799 161.467 53.3808 161.467 54.1876ZM160.742 54.1876C160.742 53.4943 160.62 52.9005 160.376 52.4063C160.132 51.9096 159.798 51.5302 159.377 51.2679C158.955 51.0057 158.475 50.8746 157.939 50.8746C157.406 50.8746 156.928 51.0057 156.506 51.2679C156.084 51.5302 155.75 51.9084 155.503 52.4025C155.259 52.8967 155.137 53.4918 155.137 54.1876C155.137 54.881 155.259 55.4748 155.503 55.969C155.747 56.4631 156.08 56.8426 156.502 57.1073C156.924 57.3696 157.403 57.5007 157.939 57.5007C158.475 57.5007 158.955 57.3696 159.377 57.1073C159.801 56.8451 160.136 56.4669 160.38 55.9727C160.624 55.476 160.745 54.881 160.742 54.1876Z" fill="#A68169"/>
<path d="M165.061 58.0604V50.3149H167.692C168.271 50.3149 168.754 50.4145 169.141 50.6137C169.531 50.8103 169.824 51.0839 170.021 51.4344C170.22 51.7823 170.319 52.1819 170.319 52.6332C170.319 53.0846 170.22 53.4829 170.021 53.8284C169.824 54.1738 169.532 54.4436 169.145 54.6377C168.758 54.8318 168.277 54.9289 167.704 54.9289H165.463V54.2822H167.684C168.109 54.2822 168.462 54.2154 168.743 54.0817C169.027 53.9481 169.238 53.7578 169.376 53.5107C169.517 53.2636 169.587 52.9711 169.587 52.6332C169.587 52.2954 169.517 52.0004 169.376 51.7483C169.235 51.4936 169.023 51.2969 168.739 51.1583C168.458 51.0196 168.102 50.9503 167.672 50.9503H165.805V58.0604H165.061ZM168.655 54.5658L170.662 58.0604H169.802L167.815 54.5658H168.655Z" fill="#A68169"/>
<path d="M178.109 50.3149H178.968L181.385 53.991H181.457L183.873 50.3149H184.733L181.791 54.7058V58.0604H181.051V54.7058L178.109 50.3149Z" fill="#A68169"/>
<path d="M194.226 54.1876C194.226 54.9945 194.074 55.6967 193.772 56.2942C193.469 56.8892 193.053 57.3506 192.522 57.6784C191.994 58.0037 191.386 58.1663 190.699 58.1663C190.011 58.1663 189.402 58.0037 188.871 57.6784C188.343 57.3506 187.928 56.8892 187.625 56.2942C187.325 55.6967 187.175 54.9945 187.175 54.1876C187.175 53.3808 187.325 52.6799 187.625 52.0849C187.928 51.4873 188.345 51.0259 188.875 50.7006C189.406 50.3729 190.014 50.209 190.699 50.209C191.386 50.209 191.994 50.3729 192.522 50.7006C193.053 51.0259 193.469 51.4873 193.772 52.0849C194.074 52.6799 194.226 53.3808 194.226 54.1876ZM193.501 54.1876C193.501 53.4943 193.379 52.9005 193.135 52.4063C192.891 51.9096 192.558 51.5302 192.136 51.2679C191.714 51.0057 191.235 50.8746 190.699 50.8746C190.165 50.8746 189.687 51.0057 189.265 51.2679C188.843 51.5302 188.509 51.9084 188.262 52.4025C188.018 52.8967 187.896 53.4918 187.896 54.1876C187.896 54.881 188.018 55.4748 188.262 55.969C188.506 56.4631 188.839 56.8426 189.261 57.1073C189.683 57.3696 190.162 57.5007 190.699 57.5007C191.235 57.5007 191.714 57.3696 192.136 57.1073C192.56 56.8451 192.895 56.4669 193.139 55.9727C193.383 55.476 193.504 54.881 193.501 54.1876Z" fill="#A68169"/>
<path d="M203.254 50.3149H203.998V55.4433C203.998 55.9702 203.868 56.4417 203.608 56.8577C203.348 57.2712 202.986 57.5977 202.521 57.8373C202.059 58.0743 201.522 58.1928 200.909 58.1928C200.299 58.1928 199.761 58.073 199.297 57.8335C198.832 57.594 198.47 57.2674 198.21 56.8539C197.95 56.4404 197.82 55.9702 197.82 55.4433V50.3149H198.564V55.3941C198.564 55.8051 198.661 56.1719 198.855 56.4947C199.049 56.8149 199.321 57.067 199.671 57.2511C200.024 57.4351 200.437 57.5271 200.909 57.5271C201.381 57.5271 201.794 57.4351 202.147 57.2511C202.5 57.067 202.772 56.8149 202.963 56.4947C203.157 56.1719 203.254 55.8051 203.254 55.3941V50.3149Z" fill="#A68169"/>
<path d="M87.2993 16.4101V17.1776C86.4576 17.1785 85.6182 17.2642 84.7945 17.4334C84.5498 17.4677 84.3206 17.5705 84.1346 17.7294C83.9486 17.8884 83.8139 18.0966 83.7467 18.3289C83.5613 19.0011 83.4731 19.6954 83.4847 20.3915V39.5787C83.4766 40.1905 83.565 40.7999 83.7467 41.3855C83.8029 41.5667 83.9042 41.7315 84.0413 41.8654C84.1783 41.9992 84.347 42.098 84.5325 42.153C85.1842 42.2799 85.8503 42.3229 86.5135 42.2809H88.8709C89.9139 42.2662 90.9434 42.0487 91.8995 41.6413C92.8228 41.2538 93.6704 40.7128 94.4044 40.0424C95.2018 39.2763 95.8263 38.3559 96.238 37.3402C96.7865 36.2397 97.1828 35.073 97.4166 33.8705H98.4644C98.3444 34.9803 98.3007 36.0968 98.3335 37.2123V39.7706C98.3551 40.931 98.4424 42.0893 98.5953 43.2403C96.9582 43.2403 95.1902 43.1124 93.2093 43.1124H72.4341V42.3449C73.19 42.3563 73.9441 42.2703 74.6769 42.089C74.9033 42.0144 75.1125 41.8969 75.2923 41.7432C75.472 41.5896 75.6189 41.4028 75.7247 41.1936C75.9777 40.536 76.0675 39.8291 75.9867 39.131V20.2636C75.9983 19.5674 75.9101 18.8732 75.7247 18.2009C75.6379 17.9796 75.4972 17.7824 75.3146 17.6263C75.132 17.4703 74.913 17.3602 74.6769 17.3055C73.9425 17.133 73.1895 17.0471 72.4341 17.0497V16.4101C73.4889 16.3983 74.5437 16.441 75.5938 16.538H84.0087C85.3184 16.538 86.5135 16.4101 87.2993 16.4101Z" fill="#CFA183"/>
<path d="M127.002 19.2452C126.828 20.1645 126.742 21.0978 126.745 22.0329V31.9642C126.755 33.4563 126.626 34.9462 126.36 36.415C126.145 37.6812 125.591 38.8676 124.756 39.8522C123.849 40.9603 122.666 41.8172 121.323 42.3389C119.421 43.0106 117.405 43.3118 115.387 43.2259C113.919 43.2191 112.454 43.0919 111.007 42.8458C109.576 42.6077 108.213 42.0674 107.012 41.2619C106.057 40.7027 105.262 39.9122 104.702 38.9652C104.164 38.0551 103.815 37.0481 103.675 36.0032C103.514 34.652 103.429 33.293 103.419 31.9325V20.2273C103.426 19.5368 103.335 18.8489 103.146 18.184C103.061 17.9648 102.923 17.7694 102.744 17.6148C102.565 17.4602 102.351 17.3511 102.119 17.297C101.405 17.1269 100.672 17.0418 99.9375 17.0436V16.41C100.966 16.3987 101.994 16.441 103.018 16.5367H111.264C112.335 16.5685 113.407 16.5262 114.472 16.41V17.1703C113.653 17.171 112.836 17.2559 112.034 17.4237C111.791 17.4547 111.563 17.5553 111.378 17.7129C111.193 17.8706 111.058 18.0784 110.991 18.3107C110.81 18.9767 110.723 19.6644 110.734 20.354V34.4668C110.745 35.5747 110.831 36.6806 110.991 37.7772C111.152 38.6516 111.508 39.4795 112.034 40.2006C112.526 40.8392 113.194 41.3233 113.959 41.5945C114.943 41.9797 115.998 42.1526 117.055 42.1014C118.825 42.2392 120.591 41.7935 122.077 40.8342C123.3 40.007 124.205 38.7957 124.644 37.3971C125.192 35.8014 125.458 34.1243 125.43 32.4394V22.5398C125.47 21.4705 125.34 20.4015 125.045 19.3719C124.522 18.3485 123.915 17.3685 123.232 16.4417H128.045C128.414 16.5684 127.13 18.58 127.002 19.2452Z" fill="#CFA183"/>
<path d="M157.628 16.4082C157.475 17.5305 157.388 18.6605 157.366 19.7926C157.366 20.8289 157.235 21.7357 157.235 22.2539V23.8732C157.207 24.3092 157.251 24.7469 157.366 25.1687H156.319C156.086 23.5183 155.53 21.9286 154.683 20.4889C154.053 19.4437 153.148 18.5873 152.065 18.0113C150.871 17.4681 149.567 17.2022 148.253 17.2341H146.617C145.911 17.1985 145.203 17.2419 144.506 17.3636C144.295 17.3959 144.098 17.4858 143.936 17.6231C143.774 17.7605 143.654 17.9398 143.59 18.1409C143.398 18.7317 143.31 19.3505 143.328 19.9707V39.0786C143.282 39.8383 143.416 40.5982 143.721 41.2971C143.872 41.5498 144.081 41.7637 144.331 41.9213C144.581 42.0789 144.865 42.1757 145.161 42.2039C146.204 42.3771 147.26 42.4637 148.318 42.463V43.2403C147.402 43.2403 146.077 43.2402 144.506 43.1107H135.688C134.503 43.0845 133.317 43.1278 132.137 43.2403V42.463C132.893 42.4746 133.646 42.3874 134.379 42.2039C134.605 42.1283 134.814 42.0093 134.994 41.8537C135.173 41.6981 135.32 41.5089 135.426 41.2971C135.677 40.6307 135.767 39.9151 135.688 39.2082V20.2136C135.7 19.5086 135.612 18.8053 135.426 18.1247C135.339 17.9006 135.198 17.7008 135.016 17.5428C134.833 17.3847 134.615 17.2732 134.379 17.2179C133.644 17.0442 132.892 16.9572 132.137 16.9588V16.4406H152.507C154.212 16.5606 155.924 16.5498 157.628 16.4082ZM150.674 29.6704V30.4477H142.003V29.6704H150.674ZM151.852 24.602C151.721 26.027 151.721 27.209 151.721 27.9863V32.1479C151.721 32.9252 151.852 33.9616 151.983 35.5161H150.936C150.763 34.6509 150.448 33.8194 150.003 33.0548C149.601 32.2703 148.96 31.6304 148.171 31.2249C147.247 30.7229 146.195 30.4979 145.144 30.5772V29.7999C145.968 29.8433 146.788 29.6642 147.517 29.2818C148.173 29.0082 148.739 28.5597 149.153 27.9863C149.577 27.4685 149.929 26.8966 150.2 26.286C150.41 25.7568 150.591 25.2161 150.74 24.6667L151.852 24.602Z" fill="#CFA183"/>
<path d="M189.828 16.4082V17.1794C189.041 17.4601 188.322 17.8977 187.716 18.4648C186.748 19.3557 185.945 20.405 185.342 21.5657L176.404 35.769H174.178L163.128 19.3806C162.77 18.6679 162.199 18.0793 161.491 17.6936C161.138 17.4693 160.732 17.3366 160.312 17.308V16.4082C161.181 16.5184 162.057 16.5614 162.932 16.5367H170.298C171.935 16.5367 173.327 16.4082 174.636 16.4082V17.1794C173.935 17.1541 173.233 17.1971 172.541 17.308C172.057 17.3478 171.596 17.5266 171.215 17.8221C170.953 18.0792 171.084 18.4648 171.346 19.1235L178.843 30.5954L177.403 32.2021L182.314 24.3293C183.285 23.0865 183.916 21.6209 184.147 20.0715C184.234 19.6567 184.193 19.2261 184.03 18.8342C183.867 18.4423 183.589 18.1068 183.231 17.8703C182.295 17.4027 181.251 17.1813 180.202 17.2276V16.4564C181.213 16.4319 182.225 16.4748 183.231 16.5849H188.142C188.697 16.4766 189.261 16.4175 189.828 16.4082ZM179.695 29.6957V39.2395C179.69 39.9387 179.778 40.6354 179.957 41.3122C180.024 41.5456 180.159 41.7548 180.345 41.9145C180.531 42.0742 180.76 42.1776 181.004 42.212C181.739 42.3833 182.492 42.4695 183.247 42.469V43.2403C182.461 43.2403 181.282 43.1117 179.973 43.1117H171.788C170.738 43.0784 169.688 43.1214 168.645 43.2403V42.469C169.395 42.4796 170.144 42.3932 170.871 42.212C171.097 42.1369 171.306 42.0189 171.486 41.8645C171.666 41.7101 171.813 41.5224 171.919 41.3122C172.172 40.6513 172.262 39.941 172.181 39.2395V31.5113L176.257 33.8249L179.695 29.6957Z" fill="#CFA183"/>
<defs>
<linearGradient id="paint0_linear_640_37619" x1="45.0441" y1="38.3027" x2="68.5439" y2="38.3027" gradientUnits="userSpaceOnUse">
<stop stop-color="#CFA183"/>
<stop offset="0.864583" stop-color="#E7D0C1" stop-opacity="0"/>
</linearGradient>
<linearGradient id="paint1_linear_640_37619" x1="2.15376" y1="38.315" x2="25.7099" y2="38.315" gradientUnits="userSpaceOnUse">
<stop offset="0.125" stop-color="#E7D0C1" stop-opacity="0"/>
<stop offset="1" stop-color="#CFA183"/>
</linearGradient>
</defs>
</svg>
