<svg width="261" height="92" viewBox="0 0 261 92" fill="none" xmlns="http://www.w3.org/2000/svg">
<mask id="mask0_579_41310" style="mask-type:alpha" maskUnits="userSpaceOnUse" x="0" y="0" width="92" height="92">
<rect width="92" height="92" fill="#D9D9D9"/>
</mask>
<g mask="url(#mask0_579_41310)">
<path fill-rule="evenodd" clip-rule="evenodd" d="M51.824 28.398C52.0923 27.7669 52.2744 27.0401 52.5427 26.4089C52.6289 26.055 53.0793 26.055 53.2614 26.4089C54.0759 29.0196 54.9767 31.64 55.7912 34.2507C58.4072 35.7808 59.1259 37.0336 57.5927 36.1634C56.4236 35.4461 55.2449 34.8149 54.0759 34.0977C53.6255 33.8204 53.4434 34.7289 54.0759 35.36L56.7782 36.9762C58.9439 38.3246 58.5894 38.9558 56.3279 37.6074C55.5229 37.0623 54.7084 36.6511 53.8939 36.1634C53.7118 36.0773 53.0793 37.6074 54.258 38.3246C57.5927 40.3042 57.9569 40.2373 57.9569 42.2838C57.9569 66.9569 57.9569 65.5224 57.8611 65.6946C57.7652 65.8667 58.139 65.6085 53.4435 67.6837C49.026 67.6837 49.1122 66.7274 46.8603 69.931C46.8603 79.2074 45.0492 80.6419 45.0492 69.8354C42.8835 66.8708 43.2476 67.6837 39.4625 67.6837C39.3667 67.6837 35.0354 65.8763 34.8629 65.6946C34.6904 65.5129 34.7671 67.502 34.7671 38.1429C33.416 36.7945 33.416 36.7085 33.416 36.5268C33.416 36.3451 33.2338 36.4407 38.0155 33.6578C39.3666 32.8449 39.4625 33.0266 45.327 32.8449C48.2018 32.8449 43.1614 32.4815 41.1778 32.2998C39.7308 32.2138 39.2613 31.946 37.9293 32.6632C37.1148 33.2083 36.9711 32.5772 37.1148 31.4009C38.0156 24.5632 37.9293 24.831 38.1976 24.7066C38.4659 24.5823 38.3797 24.611 40.8137 26.2367C41.7719 23.626 41.2641 25.6916 42.8835 17.0465C42.898 16.9658 42.9381 16.8919 42.9979 16.8357C43.0577 16.7794 43.1341 16.7439 43.2157 16.7342C43.2973 16.7246 43.3798 16.7414 43.4511 16.7821C43.5224 16.8228 43.5788 16.8853 43.6118 16.9604C43.781 17.2502 43.9314 17.5504 44.0622 17.8594C44.5988 16.597 45.0204 15.3347 45.5091 14.0341C45.6816 13.6707 46.2278 13.7568 46.2278 14.1202C46.6782 15.918 47.1286 17.6299 47.579 19.3417C48.0294 18.7105 48.3935 18.0793 48.8438 17.3621C48.8916 17.2992 48.9568 17.2517 49.0315 17.2255C49.1061 17.1994 49.1869 17.1958 49.2635 17.2152C49.3402 17.2346 49.4095 17.2761 49.4626 17.3345C49.5158 17.393 49.5506 17.4658 49.5625 17.5438C50.8274 26.8679 50.4633 25.3187 51.824 28.398ZM50.6454 32.2233C52.629 32.0512 54.9767 33.0362 51.3641 32.9501C49.8308 32.8545 48.9301 32.8545 47.3107 32.8545C44.5125 32.8067 50.9137 32.2616 50.6454 32.2616V32.2233ZM52.993 56.992C52.993 58.2448 52.811 60.4061 49.8309 60.4061C47.3107 60.4061 46.7644 59.2394 46.7644 56.8103V41.0023C46.7644 38.9271 47.3969 38.7454 49.9267 38.7454C52.4565 38.7454 52.9068 38.7454 52.9068 40.8206C52.9931 40.725 52.993 40.3712 52.993 57.0303V56.992ZM57.2286 60.4061C57.2286 62.1179 56.6057 62.3187 55.5228 61.5824C53.2614 60.2244 53.7117 60.32 53.7117 42.3986C53.7117 39.7017 53.6256 38.8028 55.9733 40.2373C57.6886 41.3562 57.2286 44.9615 57.2286 60.4443V60.4061ZM35.3995 36.0964C34.4987 36.6415 35.1312 37.5405 36.214 36.9093C39.2804 35.1114 39.0888 34.9966 40.2675 34.9966C52.1786 34.9106 54.076 33.6482 40.6316 33.5622C39.4626 33.6195 39.4625 33.7056 35.3995 36.1347V36.0964ZM36.6645 37.6265C35.3996 38.3533 35.3132 40.419 36.9327 39.434C39.0983 38.1716 39.1846 37.9899 40.4495 37.9899C56.9603 37.9039 55.6092 36.0103 40.6316 35.9147C39.8171 35.9147 39.7308 35.8286 39.0983 36.192C38.2213 36.5656 37.4019 37.0615 36.6645 37.6648V37.6265ZM37.3831 61.6684C39.6446 60.32 39.1847 60.4061 39.1847 42.4942C39.1847 39.7878 39.2804 38.8889 36.9327 40.3329C35.2174 41.2892 35.6678 44.3781 35.6678 60.5017C35.7637 60.4443 35.2175 62.969 37.3831 61.7067V61.6684ZM42.8835 38.7167C40.4496 38.7167 39.913 38.7167 39.913 40.792V57.0494C39.913 58.3117 40.0949 60.473 43.0655 60.473C45.5953 60.473 46.132 59.2968 46.132 56.8677V41.0884C46.0458 38.8411 45.4133 38.7072 42.8835 38.7072V38.7167Z" fill="#CFA183"/>
<path fill-rule="evenodd" clip-rule="evenodd" d="M56.5117 30.1011C64.4557 28.9344 74.6515 22.8139 83.4866 20.0214C83.5349 19.9974 83.5908 19.9934 83.642 20.0104C83.6932 20.0275 83.7356 20.0641 83.7598 20.1123C83.7839 20.1605 83.7878 20.2163 83.7708 20.2674C83.7537 20.3185 83.7169 20.3608 83.6686 20.3848C77.5358 23.1773 64.2736 30.3784 56.6075 31.6408C56.5002 31.642 56.3938 31.6219 56.2944 31.5815C56.195 31.5411 56.1046 31.4813 56.0287 31.4055C55.9528 31.3298 55.8929 31.2397 55.8524 31.1405C55.812 31.0413 55.7917 30.935 55.793 30.8279C55.793 30.1011 56.78 30.1011 56.5117 30.1011ZM60.6609 35.5043C59.8464 35.9538 59.0415 34.787 59.7602 34.2515C61.4184 33.5868 63.1437 33.1026 64.906 32.8075C73.837 31.0096 88.8145 25.329 89.0828 26.687C89.1691 27.0408 90.2519 26.3236 71.5755 32.6258C68.7007 33.5821 66.8896 33.7064 64.0052 34.4236C62.8607 34.6847 61.7416 35.0463 60.6609 35.5043V35.5043ZM91.0665 33.5917C91.6989 34.7584 72.3038 40.525 60.0286 40.525C59.8252 40.5123 59.6353 40.4195 59.5005 40.2671C59.3658 40.1146 59.2972 39.915 59.3099 39.7121C59.3226 39.5092 59.4155 39.3196 59.5683 39.1851C59.721 39.0506 59.921 38.9822 60.1244 38.9949C75.8206 39.1096 90.9802 33.1709 91.0665 33.6203V33.5917ZM74.4694 42.3229C89.8015 41.1562 88.9008 39.9799 89.3512 40.0755C92.5134 42.2272 64.4365 44.4841 60.0286 44.6658C59.8271 44.669 59.6319 44.5957 59.4825 44.4608C59.3331 44.3259 59.2405 44.1394 59.2235 43.939C59.1277 42.715 59.7602 43.4896 74.4694 42.3516V42.3229ZM81.6851 47.4583C82.2217 47.181 82.5859 47.7261 81.6851 47.9078C81.6851 47.9078 80.2381 48.1756 71.6713 47.9939C67.8382 47.9078 62.8266 47.8122 61.5617 47.8122C61.3584 47.8122 61.1634 47.7316 61.0197 47.5881C60.8759 47.4446 60.7951 47.25 60.7951 47.0471C60.7951 46.8442 60.8759 46.6496 61.0197 46.5061C61.1634 46.3626 61.3584 46.282 61.5617 46.282C71.4893 46.4924 81.7714 47.487 81.6851 47.487V47.4583ZM60.8431 51.5992C60.6397 51.6106 60.4402 51.5409 60.2884 51.4055C60.1365 51.2701 60.0448 51.0801 60.0334 50.8772C60.0219 50.6743 60.0916 50.4751 60.2273 50.3236C60.363 50.172 60.5535 50.0805 60.7568 50.0691C66.171 50.0691 70.7706 51.2358 75.1307 51.4175C80.2669 51.7713 83.0649 50.968 83.0649 51.6853C83.0649 51.7713 82.9788 51.867 82.8829 51.953C68.4229 53.4258 73.4729 51.6279 60.8431 51.6279V51.5992ZM60.8431 54.2099C81.4168 61.4971 82.0492 60.9616 81.8671 61.4971C81.5988 62.7595 60.9292 55.8261 60.3064 55.6444C60.212 55.6093 60.1255 55.5559 60.0518 55.4874C59.9781 55.4188 59.9187 55.3365 59.8768 55.245C59.835 55.1535 59.8116 55.0547 59.8081 54.9543C59.8045 54.8538 59.8208 54.7536 59.856 54.6594C59.8913 54.5652 59.9448 54.4789 60.0135 54.4053C60.0821 54.3318 60.1647 54.2724 60.2563 54.2307C60.348 54.1889 60.4469 54.1656 60.5476 54.1621C60.6483 54.1585 60.7487 54.1748 60.8431 54.2099V54.2099ZM60.3927 59.6992C60.2924 59.6805 60.197 59.6414 60.1124 59.5845C60.0279 59.5276 59.9559 59.454 59.9009 59.3683C59.8459 59.2825 59.8091 59.1865 59.7927 59.086C59.7763 58.9855 59.7807 58.8827 59.8056 58.784C59.8305 58.6853 59.8753 58.5927 59.9374 58.512C59.9995 58.4312 60.0776 58.364 60.1667 58.3144C60.2558 58.2649 60.3541 58.2341 60.4556 58.2239C60.5571 58.2137 60.6596 58.2243 60.7568 58.2552C61.1114 58.2552 69.8699 63.3906 69.8699 63.3906C77.9863 68.0766 78.9733 67.4454 81.9534 69.3294C82.2218 69.6067 81.9534 69.7788 81.7713 69.6928C80.3339 69.1572 80.3339 69.1572 78.8966 68.7365C70.8568 66.2118 61.3893 59.747 60.3927 59.747V59.6992ZM80.7843 77.7928C80.9664 77.9745 80.7844 78.2423 80.5161 78.1562C72.3038 73.0208 60.4789 64.2035 60.4789 64.2035C59.674 63.5723 60.7568 62.396 61.4372 63.0272C61.4755 62.9698 77.2675 74.3118 80.7843 77.8215V77.7928Z" fill="url(#paint0_linear_579_41310)"/>
<path fill-rule="evenodd" clip-rule="evenodd" d="M35.4877 30.1009C27.5534 28.9342 17.3575 22.8138 8.51281 20.0213C8.46452 19.9985 8.40907 19.9957 8.35875 20.0137C8.30843 20.0316 8.26734 20.0687 8.24447 20.1169C8.22159 20.1651 8.21889 20.2204 8.23686 20.2706C8.25483 20.3208 8.29198 20.3619 8.34027 20.3847C14.4731 23.1772 27.7353 30.3783 35.4014 31.6406C35.5084 31.657 35.6176 31.6508 35.722 31.6226C35.8265 31.5943 35.9239 31.5446 36.0079 31.4765C36.0919 31.4085 36.1608 31.3237 36.21 31.2275C36.2593 31.1314 36.2879 31.026 36.2939 30.9182C36.2999 30.8103 36.2833 30.7024 36.2451 30.6014C36.2069 30.5004 36.1479 30.4084 36.072 30.3314C35.9961 30.2545 35.9049 30.1942 35.8042 30.1545C35.7036 30.1148 35.5958 30.0966 35.4877 30.1009V30.1009ZM31.3384 35.5041C32.2966 36.0493 33.0537 34.7869 32.2967 34.2514C30.6377 33.5887 28.9127 33.1046 27.1508 32.8073C18.2199 31.0094 3.19446 25.3289 2.97406 26.6869C2.87824 27.0407 1.79542 26.3235 20.4718 32.6256C23.2699 33.5246 25.1673 33.7063 28.0516 34.4235C29.1698 34.7116 30.2677 35.0726 31.3384 35.5041V35.5041ZM31.8847 39.1095C16.3609 39.1095 1.0288 33.1707 0.932975 33.6202C0.396352 34.7869 19.4369 40.5535 31.9709 40.5535C32.8716 40.5535 32.8717 39.1095 31.8847 39.1095ZM32.0667 43.2504C30.1502 43.1643 22.9536 42.8009 17.5395 42.3514C1.56538 41.0891 2.56196 39.645 2.56196 40.3718C2.37989 42.8009 30.1693 44.6944 32.0667 44.7805C32.27 44.7805 32.465 44.6999 32.6087 44.5564C32.7525 44.4129 32.8333 44.2183 32.8333 44.0154C32.8333 43.8125 32.7525 43.6179 32.6087 43.4744C32.465 43.331 32.27 43.2504 32.0667 43.2504V43.2504ZM9.77765 47.5729C9.59558 47.8407 8.87693 48.2902 20.2418 48.0224C24.0749 48.0224 29.0865 47.8407 30.3514 47.8407C30.5547 47.8407 30.7498 47.7601 30.8935 47.6166C31.0373 47.4731 31.118 47.2785 31.118 47.0756C31.118 46.8727 31.0373 46.6781 30.8935 46.5347C30.7498 46.3912 30.5547 46.3106 30.3514 46.3106C21.775 46.4923 9.87348 47.4869 9.77765 47.5729V47.5729ZM31.166 51.6277C32.1242 51.7138 32.2392 50.1837 31.2522 50.0976C31.2522 50.0976 29.2686 50.0976 26.4609 50.3654C23.1262 50.6332 20.3281 51.2643 16.9837 51.446C11.9337 51.7999 9.04937 50.9966 9.04937 51.7138C9.04937 51.7999 9.13567 51.8955 9.2315 51.9816C13.3775 52.6411 17.5942 52.7344 21.7654 52.2589C29.3548 51.446 31.2522 51.6277 31.166 51.6277V51.6277ZM10.0844 61.4396C10.3623 62.7019 30.9264 55.8547 31.6547 55.5869C32.5555 55.3191 32.105 53.8751 31.1084 54.1428C31.7888 54.2385 10.046 61.1718 10.046 61.4396H10.0844ZM31.2905 58.2837C30.9264 58.2837 22.0912 63.4192 22.0912 63.4192C14.2431 68.0095 12.7003 67.6557 9.99803 69.3579C9.81596 69.5396 9.99809 69.8074 10.1802 69.7213C11.114 69.3336 12.0748 69.014 13.0549 68.765C20.1843 66.5176 24.966 62.9219 31.5492 59.766C32.4404 59.7469 32.335 58.016 31.2522 58.2837H31.2905ZM11.263 77.8214C11.0809 78.0031 11.3493 78.2708 11.5313 78.1848C19.3794 73.3267 31.5588 64.232 31.5588 64.232C32.3733 63.6009 31.3767 62.4246 30.6005 63.0558C31.0701 62.9697 16.0926 72.9632 11.2246 77.8214H11.263Z" fill="url(#paint1_linear_579_41310)"/>
</g>
<path d="M96.7603 74.1886V64.2916H97.7115V73.3768H102.676V74.1886H96.7603Z" fill="#A68169"/>
<path d="M108.061 64.2916V74.1886H107.11V64.2916H108.061Z" fill="#A68169"/>
<path d="M120.33 67.3844C120.235 67.0558 120.096 66.7481 119.913 66.4614C119.73 66.1714 119.503 65.9185 119.232 65.7027C118.964 65.4836 118.653 65.3128 118.301 65.1904C117.952 65.068 117.562 65.0068 117.131 65.0068C116.453 65.0068 115.846 65.1743 115.31 65.5094C114.774 65.8444 114.35 66.3277 114.038 66.9591C113.729 67.5906 113.575 68.3509 113.575 69.2401C113.575 70.1261 113.731 70.8848 114.043 71.5162C114.355 72.1477 114.782 72.6325 115.325 72.9708C115.871 73.3059 116.495 73.4734 117.197 73.4734C117.838 73.4734 118.404 73.3381 118.896 73.0675C119.388 72.7968 119.771 72.4102 120.046 71.9077C120.324 71.4051 120.459 70.8074 120.453 70.1148L120.758 70.2066H117.421V69.3947H121.378V70.2066C121.378 71.0507 121.199 71.7804 120.839 72.3957C120.48 73.0111 119.986 73.4863 119.359 73.8213C118.731 74.1564 118.011 74.3239 117.197 74.3239C116.288 74.3239 115.493 74.1161 114.811 73.7005C114.13 73.2817 113.599 72.6921 113.219 71.9318C112.843 71.1683 112.654 70.271 112.654 69.2401C112.654 68.4637 112.763 67.7629 112.98 67.1379C113.197 66.5129 113.504 65.9781 113.901 65.5335C114.301 65.0889 114.774 64.749 115.32 64.5139C115.866 64.2755 116.47 64.1562 117.131 64.1562C117.701 64.1562 118.221 64.2416 118.692 64.4124C119.167 64.5831 119.584 64.8183 119.944 65.1179C120.307 65.4143 120.603 65.7574 120.834 66.1473C121.068 66.5339 121.226 66.9462 121.307 67.3844H120.33Z" fill="#A68169"/>
<path d="M126.032 74.1886V64.2916H126.983V68.8293H132.894V64.2916H133.845V74.1886H132.894V69.6412H126.983V74.1886H126.032Z" fill="#A68169"/>
<path d="M138.268 65.1034V64.2916H145.822V65.1034H142.521V74.1886H141.57V65.1034H138.268Z" fill="#A68169"/>
<path d="M163.52 64.2916H164.471V70.8445C164.471 71.5178 164.305 72.1203 163.972 72.6519C163.64 73.1802 163.177 73.5974 162.584 73.9035C161.994 74.2063 161.307 74.3578 160.524 74.3578C159.744 74.3578 159.057 74.2047 158.463 73.8987C157.87 73.5926 157.407 73.1754 157.075 72.647C156.742 72.1187 156.576 71.5178 156.576 70.8445V64.2916H157.527V70.7817C157.527 71.3068 157.651 71.7756 157.899 72.1879C158.146 72.5971 158.494 72.9193 158.942 73.1545C159.393 73.3896 159.92 73.5072 160.524 73.5072C161.127 73.5072 161.654 73.3896 162.106 73.1545C162.557 72.9193 162.904 72.5971 163.148 72.1879C163.396 71.7756 163.52 71.3068 163.52 70.7817V64.2916Z" fill="#A68169"/>
<path d="M169.527 74.1886V64.2916H172.89C173.629 64.2916 174.246 64.4269 174.741 64.6975C175.24 64.9649 175.615 65.3289 175.866 65.7897C176.12 66.2504 176.247 66.769 176.247 67.3457C176.247 67.9224 176.122 68.4427 175.871 68.9066C175.62 69.3673 175.247 69.733 174.752 70.0036C174.256 70.271 173.641 70.4047 172.905 70.4047H170.26V69.5929H172.88C173.426 69.5929 173.878 69.4962 174.238 69.3029C174.597 69.1064 174.865 68.839 175.041 68.5007C175.221 68.1624 175.311 67.7774 175.311 67.3457C175.311 66.914 175.221 66.529 175.041 66.1908C174.865 65.8525 174.596 65.5867 174.233 65.3934C173.873 65.2001 173.417 65.1034 172.864 65.1034H170.479V74.1886H169.527Z" fill="#A68169"/>
<path d="M187.093 74.1886V64.2916H193.12V65.1034H188.044V68.8293H192.647V69.6412H188.044V74.1886H187.093Z" fill="#A68169"/>
<path d="M206.318 69.2401C206.318 70.271 206.125 71.1683 205.739 71.9318C205.352 72.6921 204.82 73.2817 204.141 73.7005C203.466 74.1161 202.69 74.3239 201.812 74.3239C200.933 74.3239 200.155 74.1161 199.477 73.7005C198.802 73.2817 198.271 72.6921 197.885 71.9318C197.501 71.1683 197.31 70.271 197.31 69.2401C197.31 68.2091 197.501 67.3135 197.885 66.5532C198.271 65.7897 198.804 65.2001 199.482 64.7845C200.16 64.3657 200.937 64.1562 201.812 64.1562C202.69 64.1562 203.466 64.3657 204.141 64.7845C204.82 65.2001 205.352 65.7897 205.739 66.5532C206.125 67.3135 206.318 68.2091 206.318 69.2401ZM205.393 69.2401C205.393 68.3541 205.237 67.5954 204.925 66.964C204.613 66.3293 204.187 65.8444 203.648 65.5094C203.109 65.1743 202.497 65.0068 201.812 65.0068C201.13 65.0068 200.519 65.1743 199.98 65.5094C199.441 65.8444 199.014 66.3277 198.698 66.9591C198.386 67.5906 198.23 68.3509 198.23 69.2401C198.23 70.1261 198.386 70.8848 198.698 71.5162C199.01 72.1477 199.436 72.6325 199.975 72.9708C200.514 73.3059 201.127 73.4734 201.812 73.4734C202.497 73.4734 203.109 73.3059 203.648 72.9708C204.19 72.6358 204.618 72.1525 204.93 71.5211C205.242 70.8864 205.396 70.1261 205.393 69.2401Z" fill="#A68169"/>
<path d="M210.911 74.1886V64.2916H214.273C215.012 64.2916 215.63 64.4188 216.125 64.6733C216.623 64.9246 216.998 65.2742 217.249 65.722C217.503 66.1666 217.63 66.6772 217.63 67.2539C217.63 67.8306 217.503 68.3396 217.249 68.781C216.998 69.2224 216.625 69.5671 216.13 69.8152C215.635 70.0632 215.021 70.1873 214.288 70.1873H211.425V69.3609H214.263C214.806 69.3609 215.257 69.2755 215.616 69.1048C215.979 68.934 216.249 68.6908 216.425 68.3751C216.605 68.0593 216.694 67.6856 216.694 67.2539C216.694 66.8222 216.605 66.4453 216.425 66.1231C216.245 65.7977 215.974 65.5464 215.611 65.3692C215.252 65.192 214.797 65.1034 214.248 65.1034H211.862V74.1886H210.911ZM215.504 69.7233L218.068 74.1886H216.969L214.431 69.7233H215.504Z" fill="#A68169"/>
<path d="M227.583 64.2916H228.682L231.77 68.9888H231.861L234.949 64.2916H236.048L232.289 69.9021V74.1886H231.342V69.9021L227.583 64.2916Z" fill="#A68169"/>
<path d="M248.177 69.2401C248.177 70.271 247.984 71.1683 247.598 71.9318C247.211 72.6921 246.679 73.2817 246 73.7005C245.325 74.1161 244.549 74.3239 243.671 74.3239C242.792 74.3239 242.014 74.1161 241.336 73.7005C240.661 73.2817 240.13 72.6921 239.744 71.9318C239.36 71.1683 239.169 70.271 239.169 69.2401C239.169 68.2091 239.36 67.3135 239.744 66.5532C240.13 65.7897 240.663 65.2001 241.341 64.7845C242.019 64.3657 242.796 64.1562 243.671 64.1562C244.549 64.1562 245.325 64.3657 246 64.7845C246.679 65.2001 247.211 65.7897 247.598 66.5532C247.984 67.3135 248.177 68.2091 248.177 69.2401ZM247.252 69.2401C247.252 68.3541 247.096 67.5954 246.784 66.964C246.472 66.3293 246.046 65.8444 245.507 65.5094C244.968 65.1743 244.356 65.0068 243.671 65.0068C242.989 65.0068 242.378 65.1743 241.839 65.5094C241.3 65.8444 240.873 66.3277 240.557 66.9591C240.245 67.5906 240.089 68.3509 240.089 69.2401C240.089 70.1261 240.245 70.8848 240.557 71.5162C240.869 72.1477 241.295 72.6325 241.834 72.9708C242.373 73.3059 242.986 73.4734 243.671 73.4734C244.356 73.4734 244.968 73.3059 245.507 72.9708C246.049 72.6358 246.477 72.1525 246.789 71.5211C247.101 70.8864 247.255 70.1261 247.252 69.2401Z" fill="#A68169"/>
<path d="M259.713 64.2916H260.664V70.8445C260.664 71.5178 260.498 72.1203 260.166 72.6519C259.834 73.1802 259.371 73.5974 258.777 73.9035C258.187 74.2063 257.5 74.3578 256.717 74.3578C255.937 74.3578 255.25 74.2047 254.657 73.8987C254.064 73.5926 253.601 73.1754 253.268 72.647C252.936 72.1187 252.77 71.5178 252.77 70.8445V64.2916H253.721V70.7817C253.721 71.3068 253.845 71.7756 254.092 72.1879C254.34 72.5971 254.688 72.9193 255.135 73.1545C255.586 73.3896 256.114 73.5072 256.717 73.5072C257.321 73.5072 257.848 73.3896 258.299 73.1545C258.75 72.9193 259.098 72.5971 259.342 72.1879C259.589 71.7756 259.713 71.3068 259.713 70.7817V64.2916Z" fill="#A68169"/>
<path d="M111.549 20.9673V21.948C110.474 21.9491 109.401 22.0586 108.349 22.2749C108.036 22.3186 107.743 22.45 107.505 22.6531C107.268 22.8562 107.096 23.1222 107.01 23.419C106.773 24.278 106.66 25.1651 106.675 26.0546V50.5716C106.665 51.3534 106.778 52.1321 107.01 52.8803C107.082 53.1118 107.211 53.3224 107.386 53.4934C107.561 53.6645 107.777 53.7907 108.014 53.861C108.847 54.0231 109.698 54.0781 110.545 54.0244H113.557C114.89 54.0056 116.206 53.7277 117.427 53.2072C118.607 52.7119 119.69 52.0207 120.628 51.1641C121.647 50.1852 122.445 49.0092 122.971 47.7113C123.672 46.3051 124.178 44.8143 124.477 43.2778H125.816C125.662 44.6959 125.607 46.1224 125.648 47.5478V50.8168C125.676 52.2995 125.787 53.7796 125.983 55.2502C123.891 55.2502 121.632 55.0868 119.101 55.0868H92.5547V54.1061C93.5205 54.1207 94.4841 54.0108 95.4206 53.7792C95.7098 53.6839 95.9771 53.5337 96.2068 53.3374C96.4365 53.1411 96.6242 52.9024 96.7594 52.6351C97.0826 51.7947 97.1974 50.8915 97.0942 49.9995V25.8911C97.1089 25.0017 96.9962 24.1146 96.7594 23.2556C96.6485 22.9728 96.4687 22.7208 96.2354 22.5214C96.0021 22.322 95.7222 22.1812 95.4206 22.1114C94.4821 21.8909 93.5199 21.7812 92.5547 21.7845V20.9673C93.9025 20.9522 95.2502 21.0068 96.5921 21.1307H107.344C109.018 21.1307 110.545 20.9673 111.549 20.9673Z" fill="#CFA183"/>
<path d="M162.28 24.5899C162.058 25.7646 161.949 26.9571 161.952 28.152V40.8419C161.965 42.7485 161.8 44.6522 161.46 46.5291C161.184 48.1469 160.477 49.663 159.41 50.921C158.251 52.337 156.739 53.4319 155.023 54.0986C152.593 54.9568 150.017 55.3417 147.439 55.2319C145.563 55.2232 143.691 55.0607 141.842 54.7462C140.013 54.4419 138.272 53.7516 136.738 52.7223C135.517 52.0079 134.501 50.9978 133.786 49.7876C133.098 48.6248 132.652 47.3381 132.474 46.0029C132.268 44.2764 132.159 42.5399 132.146 40.8014V25.8447C132.156 24.9626 132.039 24.0835 131.798 23.2339C131.689 22.9538 131.513 22.7041 131.284 22.5066C131.055 22.3091 130.781 22.1697 130.486 22.1005C129.573 21.8831 128.637 21.7744 127.698 21.7767V20.9671C129.012 20.9526 130.325 21.0067 131.633 21.1291H142.17C143.539 21.1697 144.909 21.1156 146.27 20.9671V21.9386C145.223 21.9395 144.179 22.048 143.154 22.2624C142.844 22.3021 142.553 22.4306 142.316 22.632C142.079 22.8335 141.907 23.099 141.822 23.3958C141.59 24.2468 141.479 25.1255 141.494 26.0067V44.0397C141.508 45.4553 141.618 46.8684 141.822 48.2697C142.027 49.3869 142.482 50.4448 143.154 51.3663C143.783 52.1822 144.637 52.8009 145.614 53.1473C146.871 53.6396 148.22 53.8604 149.571 53.795C151.832 53.9711 154.088 53.4017 155.987 52.1758C157.55 51.1188 158.706 49.5711 159.267 47.784C159.968 45.745 160.308 43.602 160.271 41.4491V28.7997C160.323 27.4333 160.157 26.0674 159.779 24.7518C159.111 23.4441 158.336 22.1919 157.463 21.0076H163.613C164.084 21.1695 162.444 23.7399 162.28 24.5899Z" fill="#CFA183"/>
<path d="M201.413 20.9648C201.218 22.3989 201.107 23.8427 201.078 25.2893C201.078 26.6136 200.911 27.7723 200.911 28.4344V30.5035C200.875 31.0606 200.932 31.6198 201.078 32.1588H199.74C199.443 30.0499 198.733 28.0187 197.65 26.179C196.845 24.8435 195.689 23.7493 194.305 23.0133C192.779 22.3191 191.113 21.9794 189.434 22.0201H187.343C186.441 21.9746 185.536 22.0302 184.647 22.1857C184.377 22.2269 184.125 22.3418 183.918 22.5173C183.711 22.6927 183.558 22.9218 183.476 23.1788C183.231 23.9338 183.118 24.7244 183.141 25.5169V49.9326C183.082 50.9033 183.254 51.8743 183.643 52.7673C183.836 53.0903 184.103 53.3636 184.423 53.5649C184.742 53.7663 185.106 53.89 185.483 53.926C186.816 54.1473 188.166 54.258 189.517 54.2571V55.2502C188.347 55.2502 186.654 55.2502 184.647 55.0847H173.378C171.864 55.0512 170.349 55.1065 168.842 55.2502V54.2571C169.807 54.2719 170.77 54.1605 171.706 53.926C171.995 53.8294 172.262 53.6773 172.492 53.4785C172.721 53.2797 172.909 53.038 173.044 52.7673C173.365 51.9159 173.48 51.0015 173.378 50.0981V25.8273C173.395 24.9264 173.282 24.0278 173.044 23.1581C172.933 22.8718 172.753 22.6165 172.52 22.4146C172.287 22.2126 172.007 22.0701 171.706 21.9994C170.768 21.7775 169.806 21.6664 168.842 21.6684V21.0062H194.869C197.048 21.1596 199.236 21.1457 201.413 20.9648V20.9648ZM192.528 37.911V38.9042H181.448V37.911H192.528ZM194.033 31.4346C193.866 33.2555 193.866 34.7659 193.866 35.7591V41.0767C193.866 42.0699 194.033 43.3942 194.2 45.3805H192.862C192.641 44.2749 192.238 43.2125 191.671 42.2354C191.156 41.2331 190.338 40.4154 189.329 39.8973C188.149 39.2559 186.805 38.9683 185.462 39.0697V38.0765C186.514 38.1319 187.562 37.9031 188.493 37.4144C189.331 37.0648 190.055 36.4918 190.584 35.7591C191.126 35.0974 191.576 34.3667 191.922 33.5865C192.191 32.9103 192.421 32.2194 192.611 31.5174L194.033 31.4346Z" fill="#CFA183"/>
<path d="M242.558 20.9648V21.9503C241.552 22.3089 240.634 22.8681 239.86 23.5927C238.622 24.7311 237.596 26.0718 236.826 27.555L225.405 45.7037H222.561L208.441 24.7629C207.984 23.8522 207.254 23.1001 206.35 22.6073C205.898 22.3207 205.38 22.1512 204.844 22.1146V20.9648C205.953 21.1056 207.072 21.1605 208.19 21.1291H217.603C219.695 21.1291 221.473 20.9648 223.147 20.9648V21.9503C222.251 21.9179 221.354 21.9729 220.469 22.1146C219.851 22.1655 219.261 22.3939 218.775 22.7715C218.44 23.1 218.607 23.5927 218.942 24.4344L228.522 39.093L226.681 41.146L232.957 31.0862C234.197 29.4982 235.003 27.6255 235.299 25.6457C235.41 25.1157 235.358 24.5655 235.149 24.0647C234.941 23.564 234.585 23.1353 234.128 22.8331C232.932 22.2356 231.599 21.9527 230.258 22.0119V21.0264C231.55 20.9951 232.844 21.05 234.128 21.1907H240.403C241.113 21.0523 241.834 20.9767 242.558 20.9648V20.9648ZM229.61 37.9433V50.1382C229.604 51.0315 229.716 51.9219 229.945 52.7866C230.031 53.0848 230.203 53.3522 230.44 53.5563C230.678 53.7603 230.971 53.8924 231.283 53.9363C232.222 54.1552 233.184 54.2654 234.149 54.2648V55.2502C233.145 55.2502 231.639 55.086 229.965 55.086H219.507C218.166 55.0434 216.823 55.0983 215.491 55.2502V54.2648C216.449 54.2784 217.406 54.1679 218.335 53.9363C218.625 53.8404 218.892 53.6896 219.121 53.4923C219.351 53.295 219.539 53.0552 219.674 52.7866C219.997 51.9422 220.112 51.0346 220.009 50.1382V40.2632L225.217 43.2196L229.61 37.9433Z" fill="#CFA183"/>
<defs>
<linearGradient id="paint0_linear_579_41310" x1="57.6224" y1="48.9396" x2="87.6843" y2="48.9396" gradientUnits="userSpaceOnUse">
<stop stop-color="#CFA183"/>
<stop offset="0.864583" stop-color="#E7D0C1" stop-opacity="0"/>
</linearGradient>
<linearGradient id="paint1_linear_579_41310" x1="2.75572" y1="48.9548" x2="32.8897" y2="48.9548" gradientUnits="userSpaceOnUse">
<stop offset="0.125" stop-color="#E7D0C1" stop-opacity="0"/>
<stop offset="1" stop-color="#CFA183"/>
</linearGradient>
</defs>
</svg>
