<svg width="70" height="16" viewBox="0 0 70 16" fill="none" xmlns="http://www.w3.org/2000/svg">
<path d="M8.86415 0.001139V0.458804C8.36223 0.459316 7.86168 0.510427 7.37051 0.611344C7.22463 0.631752 7.08792 0.693072 6.97702 0.787846C6.86612 0.88262 6.78579 1.00679 6.74571 1.14529C6.63519 1.54615 6.58259 1.96014 6.58948 2.37523V13.8166C6.58465 14.1814 6.63737 14.5448 6.74571 14.894C6.77926 15.002 6.83963 15.1003 6.92136 15.1801C7.0031 15.2599 7.10366 15.3189 7.21428 15.3516C7.60292 15.4273 8.00012 15.453 8.39558 15.4279H9.80128C10.4232 15.4191 11.0371 15.2895 11.6073 15.0465C12.1578 14.8154 12.6632 14.4928 13.1009 14.0931C13.5764 13.6363 13.9488 13.0874 14.1943 12.4818C14.5214 11.8256 14.7577 11.1298 14.8971 10.4128H15.5219C15.4504 11.0746 15.4243 11.7403 15.4439 12.4055V13.931C15.4567 14.6229 15.5088 15.3137 15.6 16C14.6238 16 13.5695 15.9237 12.3883 15.9237H0V15.466C0.450736 15.4729 0.900418 15.4216 1.33742 15.3135C1.47238 15.269 1.59713 15.1989 1.70433 15.1073C1.81154 15.0157 1.89912 14.9043 1.96221 14.7796C2.11306 14.3874 2.16663 13.9659 2.11844 13.5496V2.29895C2.12534 1.88386 2.07273 1.46987 1.96221 1.06901C1.91046 0.937049 1.82656 0.819431 1.71768 0.726379C1.60879 0.633327 1.4782 0.56766 1.33742 0.535081C0.899458 0.432185 0.450449 0.380965 0 0.382526V0.001139C0.628972 -0.00588448 1.25794 0.019578 1.88416 0.0774165H6.90194C7.68292 0.0774165 8.39557 0.001139 8.86415 0.001139Z" fill="#CFA183"/>
<path d="M32.539 1.69172C32.4355 2.23988 32.3842 2.79642 32.3859 3.35403V9.27604C32.3917 10.1658 32.3149 11.0542 32.1564 11.9301C32.0276 12.6851 31.6974 13.3925 31.1997 13.9796C30.6587 14.6404 29.9533 15.1514 29.1525 15.4625C28.0183 15.863 26.8163 16.0427 25.6129 15.9914C24.7375 15.9873 23.8639 15.9115 23.0012 15.7648C22.1476 15.6227 21.3351 15.3006 20.6191 14.8203C20.0494 14.4868 19.5754 14.0155 19.2416 13.4507C18.9205 12.9081 18.7124 12.3076 18.6293 11.6845C18.5332 10.8788 18.4821 10.0684 18.4762 9.25715V2.2773C18.4808 1.86561 18.4261 1.45538 18.3137 1.05891C18.263 0.928186 18.1806 0.811671 18.0739 0.719492C17.9672 0.627314 17.8394 0.562263 17.7014 0.52999C17.2754 0.42854 16.8386 0.377803 16.4004 0.378867V0.00107328C17.0136 -0.00569221 17.6266 0.0195313 18.2371 0.0766349H23.1543C23.793 0.0956011 24.4324 0.0703509 25.0676 0.00107328V0.454429C24.5789 0.454843 24.0915 0.505492 23.6134 0.605552C23.4688 0.624053 23.3329 0.684014 23.2223 0.778019C23.1118 0.872024 23.0316 0.995948 22.9917 1.13447C22.8834 1.53157 22.8319 1.94167 22.8386 2.35287V10.7684C22.8452 11.429 22.8964 12.0884 22.9917 12.7424C23.0875 13.2637 23.2998 13.7574 23.6134 14.1874C23.9067 14.5682 24.3055 14.8569 24.7615 15.0186C25.348 15.2483 25.9775 15.3514 26.6077 15.3208C27.663 15.403 28.7161 15.1373 29.6021 14.5652C30.3317 14.0719 30.8711 13.3497 31.1327 12.5157C31.4598 11.5642 31.6185 10.5641 31.6015 9.5594V3.65628C31.6255 3.01863 31.5479 2.38122 31.3718 1.76728C31.0599 1.15697 30.6984 0.572614 30.2908 0.0199529H33.1608C33.3808 0.0955128 32.6156 1.29503 32.539 1.69172Z" fill="#CFA183"/>
<path d="M50.8006 0C50.7098 0.669213 50.6576 1.34302 50.6444 2.01811C50.6444 2.63609 50.5664 3.17682 50.5664 3.48581V4.45141C50.5496 4.71139 50.576 4.97234 50.6444 5.22389H50.02C49.8813 4.23974 49.5499 3.29184 49.0444 2.43331C48.6689 1.81005 48.1294 1.29943 47.4835 0.955947C46.7714 0.631992 45.9939 0.473462 45.2104 0.492464H44.2348C43.8137 0.471236 43.3914 0.497152 42.9762 0.569714C42.8506 0.588984 42.7328 0.642579 42.6363 0.724464C42.5398 0.806349 42.4683 0.913268 42.4298 1.0332C42.3157 1.38552 42.263 1.75449 42.2738 2.12433V13.5184C42.2461 13.9714 42.3263 14.4245 42.5079 14.8413C42.5978 14.992 42.7224 15.1195 42.8716 15.2135C43.0208 15.3075 43.1904 15.3652 43.3665 15.382C43.9887 15.4853 44.6184 15.5369 45.2493 15.5365V16C44.703 16 43.9128 16 42.9762 15.9227H37.7177C37.0111 15.9071 36.3041 15.9329 35.6006 16V15.5365C36.051 15.5434 36.5004 15.4914 36.9372 15.382C37.072 15.3369 37.1967 15.2659 37.3038 15.1731C37.411 15.0804 37.4985 14.9676 37.5616 14.8413C37.7116 14.4439 37.7651 14.0172 37.7177 13.5956V2.26916C37.7252 1.84875 37.6726 1.4294 37.5616 1.02355C37.5098 0.889905 37.426 0.770787 37.3172 0.676549C37.2084 0.582311 37.0779 0.515793 36.9372 0.482799C36.4994 0.379225 36.0507 0.327376 35.6006 0.328315V0.0193161H47.7469C48.7638 0.0908656 49.7847 0.0844049 50.8006 0ZM46.6542 7.90825V8.37175H41.4835V7.90825H46.6542ZM47.3566 4.88594C47.2786 5.73567 47.2786 6.44055 47.2786 6.90404V9.38562C47.2786 9.8491 47.3566 10.4671 47.4347 11.3941H46.8103C46.7069 10.8781 46.5191 10.3823 46.2542 9.92635C46.0141 9.45857 45.632 9.077 45.1615 8.83523C44.6105 8.53588 43.9834 8.40167 43.3567 8.44898V7.9855C43.8478 8.01136 44.3368 7.90456 44.7713 7.67652C45.1625 7.51338 45.5002 7.24595 45.7469 6.90404C45.9999 6.59526 46.2099 6.25425 46.3713 5.89015C46.4969 5.57457 46.6044 5.25218 46.6932 4.92456L47.3566 4.88594Z" fill="#CFA183"/>
<path d="M69.9999 0V0.45989C69.5307 0.627218 69.102 0.888186 68.7407 1.22634C68.1634 1.75761 67.6844 2.38328 67.3252 3.07545L61.9955 11.5449H60.6679L54.0789 1.77246C53.8654 1.34744 53.5248 0.996479 53.1027 0.766468C52.892 0.632726 52.6502 0.553623 52.3999 0.536538V0C52.9177 0.065698 53.4399 0.0913277 53.9617 0.0766483H58.3544C59.3306 0.0766483 60.1603 0 60.9412 0V0.45989C60.5232 0.444761 60.1046 0.470437 59.6917 0.536538C59.4032 0.560296 59.1282 0.66692 58.901 0.843116C58.7448 0.996409 58.823 1.22635 58.9792 1.61916L63.4499 8.45986L62.5909 9.41794L65.5194 4.72335C66.0982 3.98228 66.4746 3.10833 66.6126 2.18442C66.6643 1.9371 66.6399 1.68031 66.5426 1.44662C66.4453 1.21294 66.2794 1.01288 66.0661 0.871857C65.508 0.593017 64.8857 0.460982 64.2601 0.488631V0.0287413C64.8631 0.0141105 65.4666 0.0397201 66.0661 0.10539H68.9945C69.3258 0.0407958 69.6622 0.00552399 69.9999 0ZM63.9575 7.92334V13.6143C63.9546 14.0312 64.0071 14.4467 64.1138 14.8503C64.1538 14.9894 64.2341 15.1142 64.345 15.2094C64.4559 15.3047 64.5925 15.3663 64.7384 15.3868C65.1765 15.489 65.6254 15.5404 66.0757 15.5401V16C65.6072 16 64.9043 15.9233 64.1234 15.9233H59.2426C58.6168 15.9035 57.9904 15.9291 57.3685 16V15.5401C57.816 15.5464 58.2623 15.4949 58.696 15.3868C58.831 15.3421 58.9556 15.2716 59.0628 15.1796C59.17 15.0875 59.2577 14.9756 59.3208 14.8503C59.4716 14.4562 59.5252 14.0326 59.477 13.6143V9.00597L61.9076 10.3856L63.9575 7.92334Z" fill="#CFA183"/>
</svg>
