<svg xmlns="http://www.w3.org/2000/svg" viewBox="0 0 200 200"><defs><style>.cls-1{fill:none;}.cls-2{fill:#b3b3b3;}</style></defs><g id="圖層_2" data-name="圖層 2"><g id="圖層_1-2" data-name="圖層 1"><g id="product_category_pendant"><path class="cls-1" d="M200,200H0V0H200Z"/><path class="cls-2" d="M57.53,111.17V170h84V111.17Z"/><path class="cls-2" d="M82.59,34.53c4,2.43,9.09,1.67,13.87,3.35A3.33,3.33,0,0,1,98.68,41v65.49h1.74V41a3.29,3.29,0,0,1,2.1-3.1c4.84-1.81,10.15-.77,14.15-3.67a1.2,1.2,0,0,0-.14-2c-7.87-4.72-27.69-4.49-34,.29A1.19,1.19,0,0,0,82.59,34.53Z"/></g></g></g></svg>