<svg xmlns="http://www.w3.org/2000/svg" viewBox="0 0 200 200"><defs><style>.cls-1{fill:none;}.cls-2{fill:#b3b3b3;}</style></defs><g id="圖層_2" data-name="圖層 2"><g id="圖層_1-2" data-name="圖層 1"><g id="product_category_floor_lamps"><path class="cls-1" d="M.08,99.55C.08,67.44.12,35.32,0,3.21,0,.54.54,0,3.21,0Q100,.14,196.79,0c2.67,0,3.21.54,3.21,3.21q-.13,96.8,0,193.58c0,2.67-.54,3.21-3.21,3.21Q100,199.87,3.21,200C.54,200,0,199.46,0,196.79.12,164.38.08,132,.08,99.55ZM135.46,72.67c9.71,0,19.42-.11,29.12,0,3.59.06,4.33-1,3.42-4.46a33.37,33.37,0,0,0-27.95-25c-2.87-.41-3.88-1.33-3.73-4.16.18-3.72.12-7.47,0-11.2-.13-4.75,2-11-.76-13.87-3.22-3.31-9.66-1.43-14.69-1.33C101.65,13,83.65,17.51,68.15,29.6,51.22,42.81,42.31,61,37.1,81.18c-8.49,32.9-7.84,66.22-3.74,99.64.34,2.78,2,3.77,4.39,4.27a67.57,67.57,0,0,0,28,0c1.51-.31,3.91-.45,3.89-2.29,0-2.17-2.58-2.21-4.19-2.52a68.2,68.2,0,0,0-26.25-.13c-3.07.62-3.94-.14-4.16-3-.66-8.78-1.78-17.53-2.22-26.32-1.31-26.4.19-52.55,8.49-77.89,7.63-23.26,21-41.71,44.26-51.66,14.91-6.38,30.56-7.58,46.52-6.87,2.74.12,2.62,1.76,2.62,3.62,0,7-.1,14,0,21,.06,2.77-.76,3.72-3.67,4.19-14.15,2.3-23.37,10.55-27.63,24.21-1.46,4.69-1,5.17,3.78,5.18Q121.35,72.69,135.46,72.67Z"/><path class="cls-2" d="M135.46,72.67q-14.12,0-28.23,0c-4.78,0-5.24-.49-3.78-5.18,4.26-13.66,13.48-21.91,27.63-24.21,2.91-.47,3.73-1.42,3.67-4.19-.14-7-.05-14,0-21,0-1.86.12-3.5-2.62-3.62-16-.71-31.61.49-46.52,6.87-23.26,10-36.63,28.4-44.26,51.66-8.3,25.34-9.8,51.49-8.49,77.89.44,8.79,1.56,17.54,2.22,26.32.22,2.9,1.09,3.66,4.16,3a68.2,68.2,0,0,1,26.25.13c1.61.31,4.17.35,4.19,2.52,0,1.84-2.38,2-3.89,2.29a67.57,67.57,0,0,1-28,0c-2.35-.5-4-1.49-4.39-4.27-4.1-33.42-4.75-66.74,3.74-99.64C42.31,61,51.22,42.81,68.15,29.6c15.5-12.09,33.5-16.56,52.74-16.92,5-.1,11.47-2,14.69,1.33,2.77,2.84.63,9.12.76,13.87.1,3.73.16,7.48,0,11.2-.15,2.83.86,3.75,3.73,4.16a33.37,33.37,0,0,1,27.95,25c.91,3.47.17,4.52-3.42,4.46C154.88,72.56,145.17,72.67,135.46,72.67Z"/></g></g></g></svg>