<svg xmlns="http://www.w3.org/2000/svg" viewBox="0 0 200 200"><defs><style>.cls-1{fill:none;}.cls-2{fill:#b3b3b3;}</style></defs><g id="圖層_2" data-name="圖層 2"><g id="圖層_1-2" data-name="圖層 1"><g id="product_category_home_accent"><path class="cls-1" d="M100,199.94q-48.16,0-96.33,0C1.19,200,0,200,0,196.74Q.2,100,0,3.17C0,.33.77,0,3.29,0q96.76.11,193.54,0c2.84,0,3.15.76,3.14,3.28q-.1,96.8,0,193.58c0,2.83-.76,3.15-3.28,3.14Q148.33,199.87,100,199.94Z"/><path class="cls-2" d="M133.53,42.19c-1.08-9.94-2.16-19.87-3.1-29.82-.26-2.81-1.72-3.27-4.17-3.26-17.75.07-35.51.11-53.27,0-3.13,0-4.15,1.17-4.42,4q-1.35,14.27-3,28.49c-.34,3,.59,4.32,3.74,4.61,10,.93,19.92,1.69,30.3,2,9.91-.27,20.17-1,30.42-2.06C132.68,45.89,133.83,44.87,133.53,42.19Z"/><path class="cls-2" d="M101.68,90.48a23.64,23.64,0,0,1,.09-10.81c2.17-9,4.14-18.06,6.18-27.1.17-.76.7-1.75-.54-2.12-1.85,7.71-4.41,15.1-6.24,22.76-1.11-7.65-.08-15.23-1.12-22.68l-1.35,0V73.14c-2.9-6.68-4-15.77-6.78-22.31a.35.35,0,0,0-.67.2c1.5,9,3.93,19.77,6.08,28.62a23.85,23.85,0,0,1,0,11.39q-10.73,46.62-21.2,93.28c-.29,1.27-1.31,2.68.92,4.35L97.84,97.26l1.3.15V188h1.29V97.48l.86-.09C108.2,127.67,115.12,158,122.22,189c2.12-2.47,1-3.86.69-5.2Q112.37,137.15,101.68,90.48Z"/></g></g></g></svg>