<svg xmlns="http://www.w3.org/2000/svg" viewBox="0 0 200 200"><defs><style>.cls-1{fill:none;}.cls-2{fill:#b3b3b3;}</style></defs><g id="圖層_2" data-name="圖層 2"><g id="圖層_1-2" data-name="圖層 1"><g id="product_category_wall_lamps"><path class="cls-1" d="M199.92,100.45c0,32.11,0,64.23.08,96.34,0,2.67-.54,3.21-3.21,3.21Q100,199.87,3.21,200C.54,200,0,199.46,0,196.79Q.14,100,0,3.21C0,.54.54,0,3.21,0Q100,.14,196.79,0c2.67,0,3.22.54,3.21,3.21C199.88,35.62,199.92,68,199.92,100.45Z"/><path class="cls-2" d="M171.46,87.07c-3.25-8.49-9.73-13.69-17.81-16.86-6.26-2.45-8.88-7.22-9.72-13.17-1-7.21-5.56-11.91-12.32-11.87s-11.07,4.75-12.09,12c-.78,5.49-3.27,10.35-9,12.66-8.42,3.4-15.32,8.46-18.67,17.38-1.37,3.64-1,5.45,3.62,5.37,12.12-.23,24.24-.08,36.36-.08,11.95,0,23.9-.19,35.84.09C172.55,92.72,173,91,171.46,87.07Z"/><path class="cls-2" d="M127.74,34.16c2.11,0,4.22,0,6.33,0s4.28-.1,4.17-2.74-2.37-2.58-4.39-2.57c-6.8.06-13.55.46-20.35,1.16C90.68,32.35,71,40.58,56.13,58.59,45.85,71,39.63,85.41,35.21,100.75,31,115.49,30,130.82,27.09,145.8a43.56,43.56,0,0,0,1.36,20.89c.43,1.41.65,3.51,2.71,3.29,1.54-.16,1.86-1.94,2.23-3.28a54.45,54.45,0,0,0,.39-27.13,34.66,34.66,0,0,1-.61-12c1.33-12.07,3.43-24,7.38-35.52C50.56,62.93,69,42.4,99.73,34.5A55.62,55.62,0,0,1,127.74,34.16Z"/><path class="cls-2" d="M130.17,39.72c0,.92.16,1.74,1.31,1.86,1.4.15,1.88-.59,1.83-1.86,0-1.09-.08-2.19-1.56-2.18S130.17,38.63,130.17,39.72Z"/></g></g></g></svg>