<svg xmlns="http://www.w3.org/2000/svg" xmlns:xlink="http://www.w3.org/1999/xlink" viewBox="0 0 198.91 149.82"><defs><style>.cls-1{fill:none;}.cls-2{clip-path:url(#clip-path);}.cls-3{fill:#b3b3b3;}</style><clipPath id="clip-path" transform="translate(-0.54 -25.09)"><rect class="cls-1" width="200" height="200"/></clipPath></defs><g id="圖層_2" data-name="圖層 2"><g id="圖層_1-2" data-name="圖層 1"><g id="product_category_chandaliers"><g class="cls-2"><path class="cls-3" d="M196.25,124.31c-5.21-.2-10.73-1.63-15.48-.3-5.68,1.6-6.81,7-6.34,13.21L170,138.69c-3.5,1.17-7.1,2.36-10.72,3.34a25,25,0,0,1-7.2.2c-1-.14-2.07-.3-3.1-.48-8-2.18-16.15-4.52-24-6.77l-7.66-2.2,12.17-5.43c2.93,4.15,6.61,6.39,11.46,5.74,5.3-.71,8.38-4.07,9.76-9.26.39-1.5,1.62-2.77,2.63-4.42-1.05-2.24-2.19-4.63-3.56-7.52-5.17,0-10.58-1.14-15.21.28C128.55,114,128,120.1,128.21,125a30.64,30.64,0,0,1-2.73,2.18l-8.21,3.67a21.46,21.46,0,0,1-5.55.42L103,129.29a.7.7,0,0,0-.32,0l-.38-.14a.81.81,0,0,0-.41-.34l-3.63-1.37L97,126.79c-.15-.8-.55-2.05-.84-3.47v-89c13.33-1.84,15.37-2.13,17.11-3.8a1.26,1.26,0,0,0-.2-1.95c-7.23-4.7-28.24-4.58-35,.35A1.28,1.28,0,0,0,78.12,31c5,2.93,10.84,2,16.2,3.27v90.11c-.24,1-.57,2-.87,3.09l-.49.2c-1.26.5-2.63,1-4,1.72l-2.56.36c7.69-11.43,5.3-17.94-6.74-21.75a26.16,26.16,0,0,1-4-2l-7.3,4.66c.78,5.22.45,10.9,2.59,15.39,2.76,5.8,9,5.19,14.89,4.58-1.59,1.14-3.23,2.17-4.91,3.15l-1.66.75a72.9,72.9,0,0,0-9.6,4.9,20.25,20.25,0,0,1-8.39,3l-5.48-4.33-8-7.71c5.57-10.81,1.23-18.33-10.68-19a24.44,24.44,0,0,1-4.45-1l-5.64,4.82c.39,3,.82,5.32,1,7.64.48,7.63,7.09,12.44,14.43,10.34,1.48-.42,2.89-1.08,4.15-1.57l11.32,11c-2.51.08-5.07-.1-7.69-.27l-.74-.05c-2.55-.17-5.12-.3-7.69-.4L24.34,140.6c-7.66-7.85-15.43-6.67-20.48,3.67-.65,1.33-2.09,2.28-3.19,3.39l-.13.84c1.16,2.44,2.31,4.88,3.36,7.1,5.51.16,10.23,4.63,15.83,1.5,5.42-3,6.61-7.76,6.09-13.84l6.44.2c5.63.17,11.45.34,17.16.72l.74,0c2.16.15,4.34.3,6.53.3l1.25,0,3.69.34,2.07-1a21.37,21.37,0,0,0,7-2.9A71.79,71.79,0,0,1,80,136.15c1.07-.48,2.17-1,3.26-1.49-.22.4-.41.78-.59,1.12l-13,16.46,0,0c-10.72-5.82-19.82,2.46-18,11.39.36,1.78-.29,3.76-.49,5.78l6.22,5.48c4.63-2.13,10.13-3.39,13.84-6.69,4.61-4.1,2.89-9.85,0-14.73l.24-.54,13.31-16.82c.39-.49.74-1,1.08-1.52a9,9,0,0,1,2.34-2.68,28.69,28.69,0,0,1,4.29-2.08,13.54,13.54,0,0,1,8.47.49l4.59,14.19a38.23,38.23,0,0,0-3.28,3.77,11.26,11.26,0,0,0,4.71,17l7.46,3.28,7.22-3.68c-.21-5.14.67-10.72-.93-15.45-1.7-5-6.28-6-11.11-5.83a.89.89,0,0,0-.88-.81.9.9,0,0,0-.91.9v0l-.63.06-4.09-12.63,10.64,2.38,1.5.4a.87.87,0,0,0,.41.27l8.82,2.53c8,2.29,16.24,4.66,24.39,6.88l1.55.4,5.54,1.8,3.51,4.58.14.23c-.38.68-.82,1.42-1.22,2.19-4.47,8.6-.5,16.21,9.13,17.65a42.26,42.26,0,0,1,5.68,1.71l5.73-4.64a.86.86,0,0,0,.55-.45c.11-.09.21-.16.32-.26-1.28-5.07-1.48-10.78-4.09-15-3.36-5.38-9.36-4.62-14.66-2.33,0,0,0,0,0-.06l-3.47-4.54a4.5,4.5,0,0,1,.58-.7c4.22-1.06,8.4-2.44,12.45-3.8l4.32-1.42c8.32,9.26,16.22,8.23,21.68-2.58a28.85,28.85,0,0,1,2.94-4C198.5,130,197.52,127.54,196.25,124.31Z" transform="translate(-0.54 -25.09)"/></g></g></g></g></svg>